0
SECTION
2
HEADER
9
$INSUNITS
70
4
0
ENDSEC
0
SECTION
2
TABLES
0
TABLE
2
LTYPE
0
LTYPE
72
65
70
64
2
CONTINUOUS
3
______
73
0
40
0
0
ENDTAB
0
TABLE
2
LAYER
0
ENDTAB
0
ENDSEC
0
SECTION
2
ENTITIES
0
LINE
8
0
10
92.8155296
20
-109.6440855
11
110.0496653
21
-106.6052424
0
LINE
8
0
10
110.0496653
20
-106.6052424
11
107.1844704
21
-90.3559145
0
LINE
8
0
10
107.1844704
20
-90.3559145
11
89.9503347
21
-93.3947576
0
LINE
8
0
10
89.9503347
20
-93.3947576
11
92.8155296
21
-109.6440855
0
LINE
8
0
10
89.8635106
20
-92.9023537
11
107.0976463
21
-89.8635106
0
LINE
8
0
10
107.0976463
20
-89.8635106
11
104.2324514
21
-73.6141827
0
LINE
8
0
10
104.2324514
20
-73.6141827
11
86.9983157
21
-76.6530258
0
LINE
8
0
10
86.9983157
20
-76.6530258
11
89.8635106
21
-92.9023537
0
LINE
8
0
10
86.9114916
20
-76.1606219
11
104.1456273
21
-73.1217788
0
LINE
8
0
10
104.1456273
20
-73.1217788
11
101.2804324
21
-56.8724509
0
LINE
8
0
10
101.2804324
20
-56.8724509
11
84.0462967
21
-59.911294
0
LINE
8
0
10
84.0462967
20
-59.911294
11
86.9114916
21
-76.1606219
0
LINE
8
0
10
108.2518664
20
-95.9733135
11
125.6852736
21
-94.448088
0
LINE
8
0
10
125.6852736
20
-94.448088
11
125.4431762
21
-91.6809017
0
LINE
8
0
10
125.2567282
20
-89.5497918
11
124.2472038
21
-78.0108755
0
LINE
8
0
10
124.2472038
20
-78.0108755
11
106.8137966
21
-79.536101
0
LINE
8
0
10
106.8137966
20
-79.536101
11
108.2518664
21
-95.9733135
0
LINE
8
0
10
106.7702188
20
-79.0380036
11
124.203626
21
-77.5127781
0
LINE
8
0
10
124.203626
20
-77.5127781
11
122.7655562
21
-61.0755656
0
LINE
8
0
10
122.7655562
20
-61.0755656
11
105.332149
21
-62.6007911
0
LINE
8
0
10
105.332149
20
-62.6007911
11
106.7702188
21
-79.0380036
0
LINE
8
0
10
105.2885712
20
-62.1026937
11
122.7219784
21
-60.5774682
0
LINE
8
0
10
122.7219784
20
-60.5774682
11
121.2839086
21
-44.1402557
0
LINE
8
0
10
121.2839086
20
-44.1402557
11
103.8505014
21
-45.6654812
0
LINE
8
0
10
103.8505014
20
-45.6654812
11
105.2885712
21
-62.1026937
0
LINE
8
0
10
125.4431762
20
-91.6809017
11
142.7567282
21
-91.6809017
0
LINE
8
0
10
142.7567282
20
-91.6809017
11
142.7567282
21
-75.1809017
0
LINE
8
0
10
142.7567282
20
-75.1809017
11
125.2567282
21
-75.1809017
0
LINE
8
0
10
125.2567282
20
-75.1809017
11
125.2567282
21
-89.5497918
0
LINE
8
0
10
125.2567282
20
-74.6809017
11
142.7567282
21
-74.6809017
0
LINE
8
0
10
142.7567282
20
-74.6809017
11
142.7567282
21
-58.1809017
0
LINE
8
0
10
142.7567282
20
-58.1809017
11
125.2567282
21
-58.1809017
0
LINE
8
0
10
125.2567282
20
-58.1809017
11
125.2567282
21
-74.6809017
0
LINE
8
0
10
125.2567282
20
-57.6809017
11
142.7567282
21
-57.6809017
0
LINE
8
0
10
142.7567282
20
-57.6809017
11
142.7567282
21
-41.1809017
0
LINE
8
0
10
142.7567282
20
-41.1809017
11
125.2567282
21
-41.1809017
0
LINE
8
0
10
125.2567282
20
-41.1809017
11
125.2567282
21
-57.6809017
0
LINE
8
0
10
143.2567282
20
-93.6809017
11
160.7567282
21
-93.6809017
0
LINE
8
0
10
160.7567282
20
-93.6809017
11
160.7567282
21
-77.1809017
0
LINE
8
0
10
160.7567282
20
-77.1809017
11
143.2567282
21
-77.1809017
0
LINE
8
0
10
143.2567282
20
-77.1809017
11
143.2567282
21
-93.6809017
0
LINE
8
0
10
143.2567282
20
-76.6809017
11
160.7567282
21
-76.6809017
0
LINE
8
0
10
160.7567282
20
-76.6809017
11
160.7567282
21
-60.1809017
0
LINE
8
0
10
160.7567282
20
-60.1809017
11
143.2567282
21
-60.1809017
0
LINE
8
0
10
143.2567282
20
-60.1809017
11
143.2567282
21
-76.6809017
0
LINE
8
0
10
143.2567282
20
-59.6809017
11
160.7567282
21
-59.6809017
0
LINE
8
0
10
160.7567282
20
-59.6809017
11
160.7567282
21
-43.1809017
0
LINE
8
0
10
160.7567282
20
-43.1809017
11
143.2567282
21
-43.1809017
0
LINE
8
0
10
143.2567282
20
-43.1809017
11
143.2567282
21
-59.6809017
0
LINE
8
0
10
161.2567282
20
-95.6809016
11
178.7272041
21
-95.6809016
0
LINE
8
0
10
178.7567282
20
-92.6408905
11
178.7567282
21
-79.1809016
0
LINE
8
0
10
178.7567282
20
-79.1809016
11
161.2567282
21
-79.1809016
0
LINE
8
0
10
161.2567282
20
-79.1809016
11
161.2567282
21
-95.6809016
0
LINE
8
0
10
161.2567282
20
-78.6809016
11
178.7567282
21
-78.6809016
0
LINE
8
0
10
178.7567282
20
-78.6809016
11
178.7567282
21
-62.1809016
0
LINE
8
0
10
178.7567282
20
-62.1809016
11
161.2567282
21
-62.1809016
0
LINE
8
0
10
161.2567282
20
-62.1809016
11
161.2567282
21
-78.6809016
0
LINE
8
0
10
161.2567282
20
-61.6809016
11
178.7567282
21
-61.6809016
0
LINE
8
0
10
178.7567282
20
-61.6809016
11
178.7567282
21
-45.1809016
0
LINE
8
0
10
178.7567282
20
-45.1809016
11
161.2567282
21
-45.1809016
0
LINE
8
0
10
161.2567282
20
-45.1809016
11
161.2567282
21
-61.6809016
0
LINE
8
0
10
147.6696201
20
-110.135123
11
164.5733221
21
-114.6644563
0
LINE
8
0
10
164.5733221
20
-114.6644563
11
168.8438363
21
-98.7266802
0
LINE
8
0
10
168.8438363
20
-98.7266802
11
151.9401343
21
-94.1973469
0
LINE
8
0
10
151.9401343
20
-94.1973469
11
147.6696201
21
-110.135123
0
LINE
8
0
10
167.4710995
20
-115.4409134
11
184.3748015
21
-119.9702467
0
LINE
8
0
10
184.3748015
20
-119.9702467
11
188.6453157
21
-104.0324706
0
LINE
8
0
10
188.6453157
20
-104.0324706
11
171.7416137
21
-99.5031373
0
LINE
8
0
10
171.7416137
20
-99.5031373
11
167.4710995
21
-115.4409134
0
LINE
8
0
10
178.7272041
20
-95.6809016
11
194.8984497
21
-100.0139738
0
LINE
8
0
10
194.8984497
20
-100.0139738
11
199.1689639
21
-84.0761977
0
LINE
8
0
10
199.1689639
20
-84.0761977
11
182.2652619
21
-79.5468644
0
LINE
8
0
10
182.2652619
20
-79.5468644
11
178.7567282
21
-92.6408905
0
LINE
8
0
10
187.272579
20
-120.7467038
11
204.176281
21
-125.2760371
0
LINE
8
0
10
204.176281
20
-125.2760371
11
208.4467952
21
-109.338261
0
LINE
8
0
10
208.4467952
20
-109.338261
11
191.5430932
21
-104.8089277
0
LINE
8
0
10
191.5430932
20
-104.8089277
11
187.272579
21
-120.7467038
0
ENDSEC
0
EOF