0
SECTION
2
HEADER
9
$INSUNITS
70
4
0
ENDSEC
0
SECTION
2
TABLES
0
TABLE
2
LTYPE
0
LTYPE
72
65
70
64
2
CONTINUOUS
3
______
73
0
40
0
0
ENDTAB
0
TABLE
2
LAYER
0
ENDTAB
0
ENDSEC
0
SECTION
2
ENTITIES
0
LINE
8
0
10
91.9233743
20
-110.0552533
11
111.0286447
21
-106.6864785
0
LINE
8
0
10
83.0673173
20
-59.8300579
11
91.9233743
21
-110.0552533
0
LINE
8
0
10
83.0673173
20
-59.8300579
11
104.5080288
21
-56.0494819
0
LINE
8
0
10
111.0286447
20
-106.6864785
11
109.1697155
21
-96.1439671
0
LINE
8
0
10
109.1697155
20
-96.1439671
11
125.9561112
21
-94.6753477
0
LINE
8
0
10
125.9561112
20
-94.6753477
11
125.7160033
21
-91.9309017
0
LINE
8
0
10
103.5796638
20
-45.4382215
11
125.0067282
21
-43.5635963
0
LINE
8
0
10
103.5796638
20
-45.4382215
11
104.5080288
21
-56.0494819
0
LINE
8
0
10
125.7160033
20
-91.9309017
11
143.0067282
21
-91.9309017
0
LINE
8
0
10
143.0067282
20
-42.9309017
11
143.0067282
21
-40.9309017
0
LINE
8
0
10
125.0067282
20
-43.5635963
11
125.0067282
21
-40.9309017
0
LINE
8
0
10
143.0067282
20
-40.9309017
11
125.0067282
21
-40.9309017
0
LINE
8
0
10
143.0067282
20
-93.9309017
11
151.0280158
21
-93.9309017
0
LINE
8
0
10
151.9116734
20
-93.9309017
11
161.0067282
21
-93.9309017
0
LINE
8
0
10
161.0067282
20
-44.9309016
11
161.0067282
21
-42.9309017
0
LINE
8
0
10
143.0067282
20
-93.9309017
11
143.0067282
21
-91.9309017
0
LINE
8
0
10
161.0067282
20
-42.9309017
11
143.0067282
21
-42.9309017
0
LINE
8
0
10
161.0067282
20
-95.9309016
11
178.6942909
21
-95.9309016
0
LINE
8
0
10
179.7067282
20
-78.6024883
11
179.7067282
21
-44.9309016
0
LINE
8
0
10
161.0067282
20
-95.9309016
11
161.0067282
21
-93.9309017
0
LINE
8
0
10
179.7067282
20
-44.9309016
11
161.0067282
21
-44.9309016
0
LINE
8
0
10
146.6872858
20
-110.1307264
11
164.7500988
21
-114.9706425
0
LINE
8
0
10
164.7500988
20
-114.9706425
11
169.1500225
21
-98.5499035
0
LINE
8
0
10
151.9116734
20
-93.9309017
11
169.1500225
21
-98.5499035
0
LINE
8
0
10
167.1649133
20
-115.6176901
11
184.5515782
21
-120.2764329
0
LINE
8
0
10
184.5515782
20
-120.2764329
11
188.9515019
21
-103.8556939
0
LINE
8
0
10
188.9515019
20
-103.8556939
11
171.564837
21
-99.1969511
0
LINE
8
0
10
171.564837
20
-99.1969511
11
167.1649133
21
-115.6176901
0
LINE
8
0
10
178.6942909
20
-95.9309016
11
195.7513744
21
-100.5013334
0
LINE
8
0
10
179.7067282
20
-78.6024883
11
200.1512982
21
-84.0805943
0
LINE
8
0
10
186.9663928
20
-120.9234805
11
205.0292057
21
-125.7633967
0
LINE
8
0
10
191.3663165
20
-104.5027415
11
209.4291295
21
-109.3426576
0
LINE
8
0
10
191.3663165
20
-104.5027415
11
186.9663928
21
-120.9234805
0
LINE
8
0
10
195.7513744
20
-100.5013334
11
200.1512982
21
-84.0805943
0
LINE
8
0
10
205.0292057
20
-125.7633967
11
209.4291295
21
-109.3426576
0
LINE
8
0
10
151.0280158
20
-93.9309017
11
146.6872858
21
-110.1307264
0
ENDSEC
0
EOF