0
SECTION
2
HEADER
9
$INSUNITS
70
4
0
ENDSEC
0
SECTION
2
TABLES
0
TABLE
2
LTYPE
0
LTYPE
72
65
70
64
2
CONTINUOUS
3
______
73
0
40
0
0
ENDTAB
0
TABLE
2
LAYER
0
ENDTAB
0
ENDSEC
0
SECTION
2
ENTITIES
0
LINE
8
0
10
92.4157782
20
-109.9684292
11
110.5362408
21
-106.7733026
0
LINE
8
0
10
83.1541414
20
-60.3224618
11
91.8365502
21
-109.5628494
0
LINE
8
0
10
83.5597212
20
-59.7432338
11
104.0568238
21
-56.1290415
0
LINE
8
0
10
110.9418206
20
-106.1940746
11
109.2644674
21
-96.6813315
0
LINE
8
0
10
109.7132934
20
-96.0964101
11
125.4580139
21
-94.7189256
0
LINE
8
0
10
125.9125333
20
-94.1772504
11
125.7635602
21
-92.4744795
0
LINE
8
0
10
104.0777611
20
-45.3946436
11
124.550306
21
-43.603528
0
LINE
8
0
10
103.6232417
20
-45.9363188
11
104.468097
21
-55.5930598
0
LINE
8
0
10
126.2616575
20
-91.9309017
11
142.5067282
21
-91.9309017
0
LINE
8
0
10
143.0067282
20
-42.4309017
11
143.0067282
21
-41.4309017
0
LINE
8
0
10
125.0067282
20
-43.1054307
11
125.0067282
21
-41.4309017
0
LINE
8
0
10
142.5067282
20
-40.9309017
11
125.5067282
21
-40.9309017
0
LINE
8
0
10
143.5067282
20
-93.9309017
11
150.3764031
21
-93.9309017
0
LINE
8
0
10
161.0067282
20
-44.4309016
11
161.0067282
21
-43.4309017
0
LINE
8
0
10
143.0067282
20
-93.4309017
11
143.0067282
21
-92.4309017
0
LINE
8
0
10
160.5067282
20
-42.9309017
11
143.5067282
21
-42.9309017
0
LINE
8
0
10
179.7067282
20
-78.2188249
11
179.7067282
21
-45.4309016
0
LINE
8
0
10
179.2067282
20
-44.9309016
11
161.5067282
21
-44.9309016
0
LINE
8
0
10
147.1702487
20
-110.2601359
11
204.5462428
21
-125.6339872
0
LINE
8
0
10
180.0773187
20
-78.7017878
11
199.6683353
21
-83.9511848
0
LINE
8
0
10
195.8456054
20
-100.1496586
11
200.0218887
21
-84.5635572
0
LINE
8
0
10
205.1586152
20
-125.2804338
11
209.3348985
21
-109.6943324
0
LINE
8
0
10
150.859366
20
-94.5603112
11
146.8166953
21
-109.6477635
0
LINE
8
0
10
196.0571372
20
-100.698979
11
209.1233667
21
-109.145012
0
ARC
8
0
10
110.4494167
20
-106.2808987
40
0.5
50
280.0000008
51
10.0000008
0
ARC
8
0
10
109.7568713
20
-96.5945074
40
0.5
50
94.9999976
51
190.0000008
0
ARC
8
0
10
125.414436
20
-94.2208283
40
0.5
50
274.9999976
51
4.9999976
0
ARC
8
0
10
126.2616575
20
-92.4309017
40
0.5
50
90
51
184.9999976
0
ARC
8
0
10
142.5067282
20
-92.4309017
40
0.5
50
0
51
90
0
ARC
8
0
10
143.5067282
20
-93.4309017
40
0.5
50
180
51
270
0
ARC
8
0
10
150.3764031
20
-94.4309017
40
0.5
50
345.0000021
51
90
0
ARC
8
0
10
147.2996582
20
-109.777173
40
0.5
50
165.0000021
51
255.0000021
0
ARC
8
0
10
204.6756523
20
-125.1510243
40
0.5
50
255.0000021
51
345.0000021
0
ARC
8
0
10
208.8519356
20
-109.5649229
40
0.5
50
345.0000021
51
57.1213059
0
ARC
8
0
10
196.3285683
20
-100.2790681
40
0.5
50
165.0000021
51
237.1213059
0
ARC
8
0
10
199.5389258
20
-84.4341477
40
0.5
50
345.0000021
51
75.0000021
0
ARC
8
0
10
180.2067282
20
-78.2188249
40
0.5
50
180
51
255.0000021
0
ARC
8
0
10
179.2067282
20
-45.4309016
40
0.5
50
0
51
90
0
ARC
8
0
10
161.5067282
20
-44.4309016
40
0.5
50
180
51
270
0
ARC
8
0
10
160.5067282
20
-43.4309017
40
0.5
50
0
51
90
0
ARC
8
0
10
143.5067282
20
-42.4309017
40
0.5
50
180
51
270
0
ARC
8
0
10
142.5067282
20
-41.4309017
40
0.5
50
0
51
90
0
ARC
8
0
10
125.5067282
20
-41.4309017
40
0.5
50
90
51
180
0
ARC
8
0
10
124.5067282
20
-43.1054307
40
0.5
50
274.9999976
51
0
0
ARC
8
0
10
104.121339
20
-45.8927409
40
0.5
50
94.9999976
51
184.9999976
0
ARC
8
0
10
103.9699997
20
-55.6366376
40
0.5
50
280.0000008
51
4.9999976
0
ARC
8
0
10
83.6465453
20
-60.2356377
40
0.5
50
100.0000008
51
190.0000008
0
ARC
8
0
10
92.3289541
20
-109.4760253
40
0.5
50
190.0000008
51
280.0000008
0
ENDSEC
0
EOF