0
SECTION
2
HEADER
9
$INSUNITS
70
4
0
ENDSEC
0
SECTION
2
TABLES
0
TABLE
2
LTYPE
0
LTYPE
72
65
70
64
2
CONTINUOUS
3
______
73
0
40
0
0
ENDTAB
0
TABLE
2
LAYER
0
ENDTAB
0
ENDSEC
0
SECTION
2
ENTITIES
0
LINE
8
0
10
92.4157782
20
-109.9684292
11
110.5362408
21
-106.7733026
0
LINE
8
0
10
83.1541414
20
-60.3224618
11
91.8365502
21
-109.5628494
0
LINE
8
0
10
83.5597212
20
-59.7432338
11
104.0568238
21
-56.1290415
0
LINE
8
0
10
110.9418206
20
-106.1940746
11
109.2644674
21
-96.6813315
0
LINE
8
0
10
109.7132934
20
-96.0964101
11
125.4580139
21
-94.7189256
0
LINE
8
0
10
125.9125333
20
-94.1772504
11
125.7635602
21
-92.4744795
0
LINE
8
0
10
104.0777611
20
-45.3946436
11
124.550306
21
-43.603528
0
LINE
8
0
10
103.6232417
20
-45.9363188
11
104.468097
21
-55.5930598
0
LINE
8
0
10
126.2616575
20
-91.9309017
11
142.5067282
21
-91.9309017
0
LINE
8
0
10
143.0067282
20
-42.4309017
11
143.0067282
21
-41.4309017
0
LINE
8
0
10
125.0067282
20
-43.1054307
11
125.0067282
21
-41.4309017
0
LINE
8
0
10
142.5067282
20
-40.9309017
11
125.5067282
21
-40.9309017
0
LINE
8
0
10
143.5067282
20
-93.9309017
11
150.3764031
21
-93.9309017
0
LINE
8
0
10
161.0067282
20
-44.4309016
11
161.0067282
21
-43.4309017
0
LINE
8
0
10
143.0067282
20
-93.4309017
11
143.0067282
21
-92.4309017
0
LINE
8
0
10
160.5067282
20
-42.9309017
11
143.5067282
21
-42.9309017
0
LINE
8
0
10
179.7067282
20
-78.2188249
11
179.7067282
21
-45.4309016
0
LINE
8
0
10
179.2067282
20
-44.9309016
11
161.5067282
21
-44.9309016
0
LINE
8
0
10
147.1702487
20
-110.2601359
11
204.5462428
21
-125.6339872
0
LINE
8
0
10
180.0773187
20
-78.7017878
11
199.6683353
21
-83.9511848
0
LINE
8
0
10
195.8456054
20
-100.1496586
11
200.0218887
21
-84.5635572
0
LINE
8
0
10
205.1586152
20
-125.2804338
11
209.3348985
21
-109.6943324
0
LINE
8
0
10
150.859366
20
-94.5603112
11
146.8166953
21
-109.6477635
0
LINE
8
0
10
196.0571372
20
-100.698979
11
209.1233667
21
-109.145012
0
ARC
8
0
10
110.4494167
20
-106.2808987
40
0.5
50
280.0000008
51
10.0000008
0
ARC
8
0
10
109.7568713
20
-96.5945074
40
0.5
50
94.9999976
51
190.0000008
0
ARC
8
0
10
125.414436
20
-94.2208283
40
0.5
50
274.9999976
51
4.9999976
0
ARC
8
0
10
126.2616575
20
-92.4309017
40
0.5
50
90
51
184.9999976
0
ARC
8
0
10
142.5067282
20
-92.4309017
40
0.5
50
0
51
90
0
ARC
8
0
10
143.5067282
20
-93.4309017
40
0.5
50
180
51
270
0
ARC
8
0
10
150.3764031
20
-94.4309017
40
0.5
50
345.0000021
51
90
0
ARC
8
0
10
147.2996582
20
-109.777173
40
0.5
50
165.0000021
51
255.0000021
0
ARC
8
0
10
204.6756523
20
-125.1510243
40
0.5
50
255.0000021
51
345.0000021
0
ARC
8
0
10
208.8519356
20
-109.5649229
40
0.5
50
345.0000021
51
57.1213059
0
ARC
8
0
10
196.3285683
20
-100.2790681
40
0.5
50
165.0000021
51
237.1213059
0
ARC
8
0
10
199.5389258
20
-84.4341477
40
0.5
50
345.0000021
51
75.0000021
0
ARC
8
0
10
180.2067282
20
-78.2188249
40
0.5
50
180
51
255.0000021
0
ARC
8
0
10
179.2067282
20
-45.4309016
40
0.5
50
0
51
90
0
ARC
8
0
10
161.5067282
20
-44.4309016
40
0.5
50
180
51
270
0
ARC
8
0
10
160.5067282
20
-43.4309017
40
0.5
50
0
51
90
0
ARC
8
0
10
143.5067282
20
-42.4309017
40
0.5
50
180
51
270
0
ARC
8
0
10
142.5067282
20
-41.4309017
40
0.5
50
0
51
90
0
ARC
8
0
10
125.5067282
20
-41.4309017
40
0.5
50
90
51
180
0
ARC
8
0
10
124.5067282
20
-43.1054307
40
0.5
50
274.9999976
51
0
0
ARC
8
0
10
104.121339
20
-45.8927409
40
0.5
50
94.9999976
51
184.9999976
0
ARC
8
0
10
103.9699997
20
-55.6366376
40
0.5
50
280.0000008
51
4.9999976
0
ARC
8
0
10
83.6465453
20
-60.2356377
40
0.5
50
100.0000008
51
190.0000008
0
ARC
8
0
10
92.3289541
20
-109.4760253
40
0.5
50
190.0000008
51
280.0000008
0
LINE
8
0
10
92.8155296
20
-109.6440855
11
110.0496653
21
-106.6052424
0
LINE
8
0
10
110.0496653
20
-106.6052424
11
107.1844704
21
-90.3559145
0
LINE
8
0
10
107.1844704
20
-90.3559145
11
89.9503347
21
-93.3947576
0
LINE
8
0
10
89.9503347
20
-93.3947576
11
92.8155296
21
-109.6440855
0
LINE
8
0
10
89.8635106
20
-92.9023537
11
107.0976463
21
-89.8635106
0
LINE
8
0
10
107.0976463
20
-89.8635106
11
104.2324514
21
-73.6141827
0
LINE
8
0
10
104.2324514
20
-73.6141827
11
86.9983157
21
-76.6530258
0
LINE
8
0
10
86.9983157
20
-76.6530258
11
89.8635106
21
-92.9023537
0
LINE
8
0
10
86.9114916
20
-76.1606219
11
104.1456273
21
-73.1217788
0
LINE
8
0
10
104.1456273
20
-73.1217788
11
101.2804324
21
-56.8724509
0
LINE
8
0
10
101.2804324
20
-56.8724509
11
84.0462967
21
-59.911294
0
LINE
8
0
10
84.0462967
20
-59.911294
11
86.9114916
21
-76.1606219
0
LINE
8
0
10
108.2518664
20
-95.9733135
11
125.6852736
21
-94.448088
0
LINE
8
0
10
125.6852736
20
-94.448088
11
125.4431762
21
-91.6809017
0
LINE
8
0
10
125.2567282
20
-89.5497918
11
124.2472038
21
-78.0108755
0
LINE
8
0
10
124.2472038
20
-78.0108755
11
106.8137966
21
-79.536101
0
LINE
8
0
10
106.8137966
20
-79.536101
11
108.2518664
21
-95.9733135
0
LINE
8
0
10
106.7702188
20
-79.0380036
11
124.203626
21
-77.5127781
0
LINE
8
0
10
124.203626
20
-77.5127781
11
122.7655562
21
-61.0755656
0
LINE
8
0
10
122.7655562
20
-61.0755656
11
105.332149
21
-62.6007911
0
LINE
8
0
10
105.332149
20
-62.6007911
11
106.7702188
21
-79.0380036
0
LINE
8
0
10
105.2885712
20
-62.1026937
11
122.7219784
21
-60.5774682
0
LINE
8
0
10
122.7219784
20
-60.5774682
11
121.2839086
21
-44.1402557
0
LINE
8
0
10
121.2839086
20
-44.1402557
11
103.8505014
21
-45.6654812
0
LINE
8
0
10
103.8505014
20
-45.6654812
11
105.2885712
21
-62.1026937
0
LINE
8
0
10
125.4431762
20
-91.6809017
11
142.7567282
21
-91.6809017
0
LINE
8
0
10
142.7567282
20
-91.6809017
11
142.7567282
21
-75.1809017
0
LINE
8
0
10
142.7567282
20
-75.1809017
11
125.2567282
21
-75.1809017
0
LINE
8
0
10
125.2567282
20
-75.1809017
11
125.2567282
21
-89.5497918
0
LINE
8
0
10
125.2567282
20
-74.6809017
11
142.7567282
21
-74.6809017
0
LINE
8
0
10
142.7567282
20
-74.6809017
11
142.7567282
21
-58.1809017
0
LINE
8
0
10
142.7567282
20
-58.1809017
11
125.2567282
21
-58.1809017
0
LINE
8
0
10
125.2567282
20
-58.1809017
11
125.2567282
21
-74.6809017
0
LINE
8
0
10
125.2567282
20
-57.6809017
11
142.7567282
21
-57.6809017
0
LINE
8
0
10
142.7567282
20
-57.6809017
11
142.7567282
21
-41.1809017
0
LINE
8
0
10
142.7567282
20
-41.1809017
11
125.2567282
21
-41.1809017
0
LINE
8
0
10
125.2567282
20
-41.1809017
11
125.2567282
21
-57.6809017
0
LINE
8
0
10
143.2567282
20
-93.6809017
11
160.7567282
21
-93.6809017
0
LINE
8
0
10
160.7567282
20
-93.6809017
11
160.7567282
21
-77.1809017
0
LINE
8
0
10
160.7567282
20
-77.1809017
11
143.2567282
21
-77.1809017
0
LINE
8
0
10
143.2567282
20
-77.1809017
11
143.2567282
21
-93.6809017
0
LINE
8
0
10
143.2567282
20
-76.6809017
11
160.7567282
21
-76.6809017
0
LINE
8
0
10
160.7567282
20
-76.6809017
11
160.7567282
21
-60.1809017
0
LINE
8
0
10
160.7567282
20
-60.1809017
11
143.2567282
21
-60.1809017
0
LINE
8
0
10
143.2567282
20
-60.1809017
11
143.2567282
21
-76.6809017
0
LINE
8
0
10
143.2567282
20
-59.6809017
11
160.7567282
21
-59.6809017
0
LINE
8
0
10
160.7567282
20
-59.6809017
11
160.7567282
21
-43.1809017
0
LINE
8
0
10
160.7567282
20
-43.1809017
11
143.2567282
21
-43.1809017
0
LINE
8
0
10
143.2567282
20
-43.1809017
11
143.2567282
21
-59.6809017
0
LINE
8
0
10
161.2567282
20
-95.6809016
11
178.7272041
21
-95.6809016
0
LINE
8
0
10
178.7567282
20
-92.6408905
11
178.7567282
21
-79.1809016
0
LINE
8
0
10
178.7567282
20
-79.1809016
11
161.2567282
21
-79.1809016
0
LINE
8
0
10
161.2567282
20
-79.1809016
11
161.2567282
21
-95.6809016
0
LINE
8
0
10
161.2567282
20
-78.6809016
11
178.7567282
21
-78.6809016
0
LINE
8
0
10
178.7567282
20
-78.6809016
11
178.7567282
21
-62.1809016
0
LINE
8
0
10
178.7567282
20
-62.1809016
11
161.2567282
21
-62.1809016
0
LINE
8
0
10
161.2567282
20
-62.1809016
11
161.2567282
21
-78.6809016
0
LINE
8
0
10
161.2567282
20
-61.6809016
11
178.7567282
21
-61.6809016
0
LINE
8
0
10
178.7567282
20
-61.6809016
11
178.7567282
21
-45.1809016
0
LINE
8
0
10
178.7567282
20
-45.1809016
11
161.2567282
21
-45.1809016
0
LINE
8
0
10
161.2567282
20
-45.1809016
11
161.2567282
21
-61.6809016
0
LINE
8
0
10
147.6696201
20
-110.135123
11
164.5733221
21
-114.6644563
0
LINE
8
0
10
164.5733221
20
-114.6644563
11
168.8438363
21
-98.7266802
0
LINE
8
0
10
168.8438363
20
-98.7266802
11
151.9401343
21
-94.1973469
0
LINE
8
0
10
151.9401343
20
-94.1973469
11
147.6696201
21
-110.135123
0
LINE
8
0
10
167.4710995
20
-115.4409134
11
184.3748015
21
-119.9702467
0
LINE
8
0
10
184.3748015
20
-119.9702467
11
188.6453157
21
-104.0324706
0
LINE
8
0
10
188.6453157
20
-104.0324706
11
171.7416137
21
-99.5031373
0
LINE
8
0
10
171.7416137
20
-99.5031373
11
167.4710995
21
-115.4409134
0
LINE
8
0
10
178.7272041
20
-95.6809016
11
194.8984497
21
-100.0139738
0
LINE
8
0
10
194.8984497
20
-100.0139738
11
199.1689639
21
-84.0761977
0
LINE
8
0
10
199.1689639
20
-84.0761977
11
182.2652619
21
-79.5468644
0
LINE
8
0
10
182.2652619
20
-79.5468644
11
178.7567282
21
-92.6408905
0
LINE
8
0
10
187.272579
20
-120.7467038
11
204.176281
21
-125.2760371
0
LINE
8
0
10
204.176281
20
-125.2760371
11
208.4467952
21
-109.338261
0
LINE
8
0
10
208.4467952
20
-109.338261
11
191.5430932
21
-104.8089277
0
LINE
8
0
10
191.5430932
20
-104.8089277
11
187.272579
21
-120.7467038
0
ENDSEC
0
EOF