0
SECTION
2
HEADER
9
$INSUNITS
70
4
0
ENDSEC
0
SECTION
2
TABLES
0
TABLE
2
LTYPE
0
LTYPE
72
65
70
64
2
CONTINUOUS
3
______
73
0
40
0
0
ENDTAB
0
TABLE
2
LAYER
0
ENDTAB
0
ENDSEC
0
SECTION
2
ENTITIES
0
LINE
8
0
10
92.4157782
20
-109.9684292
11
110.5362408
21
-106.7733026
0
LINE
8
0
10
83.1541414
20
-60.3224618
11
91.8365502
21
-109.5628494
0
LINE
8
0
10
83.5597212
20
-59.7432338
11
104.0568238
21
-56.1290415
0
LINE
8
0
10
110.9418206
20
-106.1940746
11
109.2644674
21
-96.6813315
0
LINE
8
0
10
109.7132934
20
-96.0964101
11
125.4580139
21
-94.7189256
0
LINE
8
0
10
125.9125333
20
-94.1772504
11
125.7635602
21
-92.4744795
0
LINE
8
0
10
104.0777611
20
-45.3946436
11
124.550306
21
-43.603528
0
LINE
8
0
10
103.6232417
20
-45.9363188
11
104.468097
21
-55.5930598
0
LINE
8
0
10
126.2616575
20
-91.9309017
11
142.5067282
21
-91.9309017
0
LINE
8
0
10
143.0067282
20
-42.4309017
11
143.0067282
21
-41.4309017
0
LINE
8
0
10
125.0067282
20
-43.1054307
11
125.0067282
21
-41.4309017
0
LINE
8
0
10
142.5067282
20
-40.9309017
11
125.5067282
21
-40.9309017
0
LINE
8
0
10
143.5067282
20
-93.9309017
11
150.3764031
21
-93.9309017
0
LINE
8
0
10
161.0067282
20
-44.4309016
11
161.0067282
21
-43.4309017
0
LINE
8
0
10
143.0067282
20
-93.4309017
11
143.0067282
21
-92.4309017
0
LINE
8
0
10
160.5067282
20
-42.9309017
11
143.5067282
21
-42.9309017
0
LINE
8
0
10
179.7067282
20
-78.2188249
11
179.7067282
21
-45.4309016
0
LINE
8
0
10
179.2067282
20
-44.9309016
11
161.5067282
21
-44.9309016
0
LINE
8
0
10
147.1702487
20
-110.2601359
11
204.5462428
21
-125.6339872
0
LINE
8
0
10
180.0773187
20
-78.7017878
11
199.6683353
21
-83.9511848
0
LINE
8
0
10
195.8456054
20
-100.1496586
11
200.0218887
21
-84.5635572
0
LINE
8
0
10
205.1586152
20
-125.2804338
11
209.3348985
21
-109.6943324
0
LINE
8
0
10
150.859366
20
-94.5603112
11
146.8166953
21
-109.6477635
0
LINE
8
0
10
196.0571372
20
-100.698979
11
209.1233667
21
-109.145012
0
ARC
8
0
10
110.4494167
20
-106.2808987
40
0.5
50
280.0000008
51
10.0000008
0
ARC
8
0
10
109.7568713
20
-96.5945074
40
0.5
50
94.9999976
51
190.0000008
0
ARC
8
0
10
125.414436
20
-94.2208283
40
0.5
50
274.9999976
51
4.9999976
0
ARC
8
0
10
126.2616575
20
-92.4309017
40
0.5
50
90
51
184.9999976
0
ARC
8
0
10
142.5067282
20
-92.4309017
40
0.5
50
0
51
90
0
ARC
8
0
10
143.5067282
20
-93.4309017
40
0.5
50
180
51
270
0
ARC
8
0
10
150.3764031
20
-94.4309017
40
0.5
50
345.0000021
51
90
0
ARC
8
0
10
147.2996582
20
-109.777173
40
0.5
50
165.0000021
51
255.0000021
0
ARC
8
0
10
204.6756523
20
-125.1510243
40
0.5
50
255.0000021
51
345.0000021
0
ARC
8
0
10
208.8519356
20
-109.5649229
40
0.5
50
345.0000021
51
57.1213059
0
ARC
8
0
10
196.3285683
20
-100.2790681
40
0.5
50
165.0000021
51
237.1213059
0
ARC
8
0
10
199.5389258
20
-84.4341477
40
0.5
50
345.0000021
51
75.0000021
0
ARC
8
0
10
180.2067282
20
-78.2188249
40
0.5
50
180
51
255.0000021
0
ARC
8
0
10
179.2067282
20
-45.4309016
40
0.5
50
0
51
90
0
ARC
8
0
10
161.5067282
20
-44.4309016
40
0.5
50
180
51
270
0
ARC
8
0
10
160.5067282
20
-43.4309017
40
0.5
50
0
51
90
0
ARC
8
0
10
143.5067282
20
-42.4309017
40
0.5
50
180
51
270
0
ARC
8
0
10
142.5067282
20
-41.4309017
40
0.5
50
0
51
90
0
ARC
8
0
10
125.5067282
20
-41.4309017
40
0.5
50
90
51
180
0
ARC
8
0
10
124.5067282
20
-43.1054307
40
0.5
50
274.9999976
51
0
0
ARC
8
0
10
104.121339
20
-45.8927409
40
0.5
50
94.9999976
51
184.9999976
0
ARC
8
0
10
103.9699997
20
-55.6366376
40
0.5
50
280.0000008
51
4.9999976
0
ARC
8
0
10
83.6465453
20
-60.2356377
40
0.5
50
100.0000008
51
190.0000008
0
ARC
8
0
10
92.3289541
20
-109.4760253
40
0.5
50
190.0000008
51
280.0000008
0
LINE
8
0
10
94.4029989
20
-107.9933459
11
107.9933459
21
-105.5970011
0
LINE
8
0
10
107.9933459
20
-105.5970011
11
105.5970011
21
-92.0066541
0
LINE
8
0
10
105.5970011
20
-92.0066541
11
92.0066541
21
-94.4029989
0
LINE
8
0
10
92.0066541
20
-94.4029989
11
94.4029989
21
-107.9933459
0
LINE
8
0
10
91.4509799
20
-91.2516141
11
105.0413269
21
-88.8552693
0
LINE
8
0
10
105.0413269
20
-88.8552693
11
102.6449821
21
-75.2649223
0
LINE
8
0
10
102.6449821
20
-75.2649223
11
89.0546351
21
-77.6612671
0
LINE
8
0
10
89.0546351
20
-77.6612671
11
91.4509799
21
-91.2516141
0
LINE
8
0
10
88.4989609
20
-74.5098823
11
102.0893079
21
-72.1135375
0
LINE
8
0
10
102.0893079
20
-72.1135375
11
99.6929631
21
-58.5231905
0
LINE
8
0
10
99.6929631
20
-58.5231905
11
86.1026161
21
-60.9195353
0
LINE
8
0
10
86.1026161
20
-60.9195353
11
88.4989609
21
-74.5098823
0
LINE
8
0
10
109.9771663
20
-94.4672125
11
123.7246531
21
-93.2644633
0
LINE
8
0
10
123.7246531
20
-93.2644633
11
122.5219039
21
-79.5169765
0
LINE
8
0
10
122.5219039
20
-79.5169765
11
108.7744171
21
-80.7197257
0
LINE
8
0
10
108.7744171
20
-80.7197257
11
109.9771663
21
-94.4672125
0
LINE
8
0
10
108.4955187
20
-77.5319026
11
122.2430055
21
-76.3291534
0
LINE
8
0
10
122.2430055
20
-76.3291534
11
121.0402563
21
-62.5816666
0
LINE
8
0
10
121.0402563
20
-62.5816666
11
107.2927695
21
-63.7844158
0
LINE
8
0
10
107.2927695
20
-63.7844158
11
108.4955187
21
-77.5319026
0
LINE
8
0
10
107.0138711
20
-60.5965927
11
120.7613579
21
-59.3938435
0
LINE
8
0
10
120.7613579
20
-59.3938435
11
119.5586087
21
-45.6463567
0
LINE
8
0
10
119.5586087
20
-45.6463567
11
105.8111219
21
-46.8491059
0
LINE
8
0
10
105.8111219
20
-46.8491059
11
107.0138711
21
-60.5965927
0
LINE
8
0
10
127.1067282
20
-90.3309017
11
140.9067282
21
-90.3309017
0
LINE
8
0
10
140.9067282
20
-90.3309017
11
140.9067282
21
-76.5309017
0
LINE
8
0
10
140.9067282
20
-76.5309017
11
127.1067282
21
-76.5309017
0
LINE
8
0
10
127.1067282
20
-76.5309017
11
127.1067282
21
-90.3309017
0
LINE
8
0
10
127.1067282
20
-73.3309017
11
140.9067282
21
-73.3309017
0
LINE
8
0
10
140.9067282
20
-73.3309017
11
140.9067282
21
-59.5309017
0
LINE
8
0
10
140.9067282
20
-59.5309017
11
127.1067282
21
-59.5309017
0
LINE
8
0
10
127.1067282
20
-59.5309017
11
127.1067282
21
-73.3309017
0
LINE
8
0
10
127.1067282
20
-56.3309017
11
140.9067282
21
-56.3309017
0
LINE
8
0
10
140.9067282
20
-56.3309017
11
140.9067282
21
-42.5309017
0
LINE
8
0
10
140.9067282
20
-42.5309017
11
127.1067282
21
-42.5309017
0
LINE
8
0
10
127.1067282
20
-42.5309017
11
127.1067282
21
-56.3309017
0
LINE
8
0
10
145.1067282
20
-92.3309017
11
158.9067282
21
-92.3309017
0
LINE
8
0
10
158.9067282
20
-92.3309017
11
158.9067282
21
-78.5309017
0
LINE
8
0
10
158.9067282
20
-78.5309017
11
145.1067282
21
-78.5309017
0
LINE
8
0
10
145.1067282
20
-78.5309017
11
145.1067282
21
-92.3309017
0
LINE
8
0
10
145.1067282
20
-75.3309017
11
158.9067282
21
-75.3309017
0
LINE
8
0
10
158.9067282
20
-75.3309017
11
158.9067282
21
-61.5309017
0
LINE
8
0
10
158.9067282
20
-61.5309017
11
145.1067282
21
-61.5309017
0
LINE
8
0
10
145.1067282
20
-61.5309017
11
145.1067282
21
-75.3309017
0
LINE
8
0
10
145.1067282
20
-58.3309017
11
158.9067282
21
-58.3309017
0
LINE
8
0
10
158.9067282
20
-58.3309017
11
158.9067282
21
-44.5309017
0
LINE
8
0
10
158.9067282
20
-44.5309017
11
145.1067282
21
-44.5309017
0
LINE
8
0
10
145.1067282
20
-44.5309017
11
145.1067282
21
-58.3309017
0
LINE
8
0
10
163.1067282
20
-94.3309016
11
176.9067282
21
-94.3309016
0
LINE
8
0
10
176.9067282
20
-94.3309016
11
176.9067282
21
-80.5309016
0
LINE
8
0
10
176.9067282
20
-80.5309016
11
163.1067282
21
-80.5309016
0
LINE
8
0
10
163.1067282
20
-80.5309016
11
163.1067282
21
-94.3309016
0
LINE
8
0
10
163.1067282
20
-77.3309016
11
176.9067282
21
-77.3309016
0
LINE
8
0
10
176.9067282
20
-77.3309016
11
176.9067282
21
-63.5309016
0
LINE
8
0
10
176.9067282
20
-63.5309016
11
163.1067282
21
-63.5309016
0
LINE
8
0
10
163.1067282
20
-63.5309016
11
163.1067282
21
-77.3309016
0
LINE
8
0
10
163.1067282
20
-60.3309016
11
176.9067282
21
-60.3309016
0
LINE
8
0
10
176.9067282
20
-60.3309016
11
176.9067282
21
-46.5309016
0
LINE
8
0
10
176.9067282
20
-46.5309016
11
163.1067282
21
-46.5309016
0
LINE
8
0
10
163.1067282
20
-46.5309016
11
163.1067282
21
-60.3309016
0
LINE
8
0
10
149.8059886
20
-109.3099384
11
163.135765
21
-112.8816412
0
LINE
8
0
10
163.135765
20
-112.8816412
11
166.7074678
21
-99.5518648
0
LINE
8
0
10
166.7074678
20
-99.5518648
11
153.3776914
21
-95.980162
0
LINE
8
0
10
153.3776914
20
-95.980162
11
149.8059886
21
-109.3099384
0
LINE
8
0
10
169.607468
20
-114.6157288
11
182.9372444
21
-118.1874316
0
LINE
8
0
10
182.9372444
20
-118.1874316
11
186.5089472
21
-104.8576552
0
LINE
8
0
10
186.5089472
20
-104.8576552
11
173.1791708
21
-101.2859524
0
LINE
8
0
10
173.1791708
20
-101.2859524
11
169.607468
21
-114.6157288
0
LINE
8
0
10
180.1311162
20
-94.6594559
11
193.4608926
21
-98.2311587
0
LINE
8
0
10
193.4608926
20
-98.2311587
11
197.0325954
21
-84.9013823
0
LINE
8
0
10
197.0325954
20
-84.9013823
11
183.702819
21
-81.3296795
0
LINE
8
0
10
183.702819
20
-81.3296795
11
180.1311162
21
-94.6594559
0
LINE
8
0
10
189.4089475
20
-119.9215192
11
202.7387239
21
-123.493222
0
LINE
8
0
10
202.7387239
20
-123.493222
11
206.3104267
21
-110.1634456
0
LINE
8
0
10
206.3104267
20
-110.1634456
11
192.9806503
21
-106.5917428
0
LINE
8
0
10
192.9806503
20
-106.5917428
11
189.4089475
21
-119.9215192
0
ENDSEC
0
EOF