0
SECTION
2
HEADER
9
$INSUNITS
70
4
0
ENDSEC
0
SECTION
2
TABLES
0
TABLE
2
LTYPE
0
LTYPE
72
65
70
64
2
CONTINUOUS
3
______
73
0
40
0
0
ENDTAB
0
TABLE
2
LAYER
0
ENDTAB
0
ENDSEC
0
SECTION
2
ENTITIES
0
LINE
8
0
10
-11.8592202
20
-5.6221791
11
5.7404751
21
60.0607772
0
LINE
8
0
10
6.9652199
20
60.767884
11
39.8066981
21
51.9680364
0
LINE
8
0
10
41.0314429
20
52.6751431
11
41.549081
21
54.6069949
0
LINE
8
0
10
42.7738258
20
55.3141016
11
58.2286391
21
51.1729968
0
LINE
8
0
10
59.4533839
20
51.8801036
11
59.453384
21
51.8801037
0
LINE
8
0
10
60.6781288
20
52.5872105
11
78.0744046
21
47.9258924
0
LINE
8
0
10
78.7840512
20
46.7108193
11
78.7790682
21
46.6914499
0
LINE
8
0
10
79.4887148
20
45.4763768
11
94.9338204
21
41.3378733
0
LINE
8
0
10
95.6409272
20
40.1131284
11
95.6409272
21
40.1131283
0
LINE
8
0
10
96.348034
20
38.8883834
11
111.8028472
21
34.7472787
0
LINE
8
0
10
112.509954
20
33.5225339
11
99.4048762
21
-15.3862817
0
LINE
8
0
10
99.4314642
20
-15.988094
11
103.3247838
21
-26.6505247
0
LINE
8
0
10
103.621334
20
-27.0735758
11
117.0084517
21
-38.3067013
0
LINE
8
0
10
117.2981293
20
-38.711486
11
120.4294563
21
-46.7939088
0
LINE
8
0
10
120.5427695
20
-47.0062255
11
130.7976211
21
-61.6516713
0
LINE
8
0
10
130.5520455
20
-63.0443997
11
102.7008758
21
-82.5459986
0
LINE
8
0
10
101.3081474
20
-82.300423
11
91.0083461
21
-67.5907821
0
LINE
8
0
10
90.956286
20
-67.5228213
11
79.6011141
21
-53.9453372
0
LINE
8
0
10
79.3924082
20
-53.7572931
11
66.6215723
21
-45.1613228
0
LINE
8
0
10
66.6215723
20
-45.1613228
11
66.3132009
21
-45.0305348
0
LINE
8
0
10
66.3132009
20
-45.0305348
11
49.3971015
21
-40.4978797
0
LINE
8
0
10
49.2260788
20
-40.467667
11
31.7063475
21
-38.923537
0
LINE
8
0
10
30.8437251
20
-38.2383716
11
23.789647
21
-16.6791796
0
LINE
8
0
10
23.0980473
20
-16.0242269
11
-11.1521134
21
-6.8469239
0
ARC
8
0
10
6.7064009
20
59.8019582
40
1
50
75.0000021
51
165.0000021
0
ARC
8
0
10
40.0655171
20
52.9339622
40
1
50
255.0000021
51
344.9999966
0
ARC
8
0
10
42.5150068
20
54.3481758
40
1
50
75.0000021
51
164.9999966
0
ARC
8
0
10
58.4874581
20
52.1389226
40
1
50
255.0000021
51
345.0000021
0
ARC
8
0
10
60.4193098
20
51.6212847
40
1
50
75.0000021
51
165.0000021
0
ARC
8
0
10
77.8155856
20
46.9599666
40
1
50
345.5729404
51
75.0000021
0
ARC
8
0
10
79.7475338
20
46.4423026
40
1
50
165.5729404
51
255.0000021
0
ARC
8
0
10
94.6750014
20
40.3719475
40
1
50
344.9999966
51
75.0000021
0
ARC
8
0
10
96.606853
20
39.8543092
40
1
50
164.9999966
51
255.0000021
0
ARC
8
0
10
111.5440282
20
33.7813529
40
1
50
345.0000021
51
75.0000021
0
ARC
8
0
10
100.370802
20
-15.6451007
40
1
50
165.0000021
51
200.0593484
0
ARC
8
0
10
104.2641216
20
-26.3075314
40
1
50
200.0593484
51
229.9999988
0
ARC
8
0
10
116.3656641
20
-39.0727457
40
1
50
21.1775796
51
49.9999988
0
ARC
8
0
10
121.3619215
20
-46.4326491
40
1
50
201.1775796
51
214.9999997
0
ARC
8
0
10
129.9784691
20
-62.2252477
40
1
50
304.9999997
51
34.9999997
0
ARC
8
0
10
102.1272994
20
-81.7268466
40
1
50
214.9999997
51
304.9999997
0
ARC
8
0
10
90.1891941
20
-68.1643585
40
1
50
34.9999997
51
39.9065413
0
ARC
8
0
10
78.8340222
20
-54.5868744
40
1
50
39.9065413
51
56.0557489
0
ARC
8
0
10
49.1382825
20
-41.4638055
40
1
50
75.0000021
51
84.9631578
0
ARC
8
0
10
31.7941438
20
-37.9273985
40
1
50
198.117884
51
264.9631578
0
ARC
8
0
10
22.8392283
20
-16.9901527
40
1
50
18.117884
51
75.0000021
0
ARC
8
0
10
-10.8932944
20
-5.8809981
40
1
50
165.0000021
51
255.0000021
0
LINE
8
0
10
-10.5871081
20
-5.7042214
11
6.3165939
21
-10.2335547
0
LINE
8
0
10
6.3165939
20
-10.2335547
11
10.5871081
21
5.7042214
0
LINE
8
0
10
10.5871081
20
5.7042214
11
-6.3165939
21
10.2335547
0
LINE
8
0
10
-6.3165939
20
10.2335547
11
-10.5871081
21
-5.7042214
0
LINE
8
0
10
-6.1871843
20
10.7165177
11
10.7165177
21
6.1871844
0
LINE
8
0
10
10.7165177
20
6.1871844
11
14.9870319
21
22.1249605
0
LINE
8
0
10
14.9870319
20
22.1249605
11
-1.9166701
21
26.6542938
0
LINE
8
0
10
-1.9166701
20
26.6542938
11
-6.1871843
21
10.7165177
0
LINE
8
0
10
-1.7872605
20
27.1372567
11
15.1164415
21
22.6079234
0
LINE
8
0
10
15.1164415
20
22.6079234
11
19.3869557
21
38.5456995
0
LINE
8
0
10
19.3869557
20
38.5456995
11
2.4832537
21
43.0750328
0
LINE
8
0
10
2.4832537
20
43.0750328
11
-1.7872605
21
27.1372567
0
LINE
8
0
10
2.6126633
20
43.5579958
11
19.5163653
21
39.0286625
0
LINE
8
0
10
19.5163653
20
39.0286625
11
23.7868795
21
54.9664386
0
LINE
8
0
10
23.7868795
20
54.9664386
11
6.8831775
21
59.4957719
0
LINE
8
0
10
6.8831775
20
59.4957719
11
2.6126633
21
43.5579958
0
LINE
8
0
10
6.7995568
20
-10.3629642
11
23.7032588
21
-14.8922975
0
LINE
8
0
10
23.7032588
20
-14.8922975
11
27.973773
21
1.0454786
0
LINE
8
0
10
27.973773
20
1.0454786
11
11.070071
21
5.5748119
0
LINE
8
0
10
11.070071
20
5.5748119
11
6.7995568
21
-10.3629642
0
LINE
8
0
10
11.1994806
20
6.0577749
11
28.1031826
21
1.5284416
0
LINE
8
0
10
28.1031826
20
1.5284416
11
32.3736968
21
17.4662177
0
LINE
8
0
10
32.3736968
20
17.4662177
11
15.4699948
21
21.995551
0
LINE
8
0
10
15.4699948
20
21.995551
11
11.1994806
21
6.0577749
0
LINE
8
0
10
15.5994044
20
22.4785139
11
32.5031064
21
17.9491806
0
LINE
8
0
10
32.5031064
20
17.9491806
11
36.7736206
21
33.8869567
0
LINE
8
0
10
36.7736206
20
33.8869567
11
19.8699186
21
38.41629
0
LINE
8
0
10
19.8699186
20
38.41629
11
15.5994044
21
22.4785139
0
LINE
8
0
10
19.9993282
20
38.899253
11
36.9030302
21
34.3699197
0
LINE
8
0
10
36.9030302
20
34.3699197
11
41.1735444
21
50.3076958
0
LINE
8
0
10
41.1735444
20
50.3076958
11
24.2698424
21
54.8370291
0
LINE
8
0
10
24.2698424
20
54.8370291
11
19.9993282
21
38.899253
0
LINE
8
0
10
25.2214979
20
-11.1580038
11
42.1251999
21
-15.6873371
0
LINE
8
0
10
42.1251999
20
-15.6873371
11
46.3957141
21
0.250439
0
LINE
8
0
10
46.3957141
20
0.250439
11
29.4920121
21
4.7797723
0
LINE
8
0
10
29.4920121
20
4.7797723
11
25.2214979
21
-11.1580038
0
LINE
8
0
10
29.6214217
20
5.2627353
11
46.5251237
21
0.733402
0
LINE
8
0
10
46.5251237
20
0.733402
11
50.7956379
21
16.6711781
0
LINE
8
0
10
50.7956379
20
16.6711781
11
33.8919359
21
21.2005114
0
LINE
8
0
10
33.8919359
20
21.2005114
11
29.6214217
21
5.2627353
0
LINE
8
0
10
34.0213455
20
21.6834744
11
50.9250475
21
17.1541411
0
LINE
8
0
10
50.9250475
20
17.1541411
11
55.1955617
21
33.0919172
0
LINE
8
0
10
55.1955617
20
33.0919172
11
38.2918597
21
37.6212505
0
LINE
8
0
10
38.2918597
20
37.6212505
11
34.0213455
21
21.6834744
0
LINE
8
0
10
38.4212693
20
38.1042134
11
55.3249713
21
33.5748801
0
LINE
8
0
10
55.3249713
20
33.5748801
11
59.5954855
21
49.5126562
0
LINE
8
0
10
59.5954855
20
49.5126562
11
42.6917835
21
54.0419895
0
LINE
8
0
10
42.6917835
20
54.0419895
11
38.4212693
21
38.1042134
0
LINE
8
0
10
43.1258008
20
-13.8848949
11
60.0295028
21
-18.4142282
0
LINE
8
0
10
60.0295028
20
-18.4142282
11
64.300017
21
-2.4764521
0
LINE
8
0
10
64.300017
20
-2.4764521
11
47.396315
21
2.0528812
0
LINE
8
0
10
47.396315
20
2.0528812
11
43.1258008
21
-13.8848949
0
LINE
8
0
10
47.5257246
20
2.5358442
11
64.4294266
21
-1.9934891
0
LINE
8
0
10
64.4294266
20
-1.9934891
11
68.6999408
21
13.944287
0
LINE
8
0
10
68.6999408
20
13.944287
11
51.7962388
21
18.4736203
0
LINE
8
0
10
51.7962388
20
18.4736203
11
47.5257246
21
2.5358442
0
LINE
8
0
10
51.9256484
20
18.9565833
11
68.8293504
21
14.42725
0
LINE
8
0
10
68.8293504
20
14.42725
11
73.0998646
21
30.3650261
0
LINE
8
0
10
73.0998646
20
30.3650261
11
56.1961626
21
34.8943594
0
LINE
8
0
10
56.1961626
20
34.8943594
11
51.9256484
21
18.9565833
0
LINE
8
0
10
56.3255722
20
35.3773223
11
73.2292742
21
30.847989
0
LINE
8
0
10
73.2292742
20
30.847989
11
77.4997884
21
46.7857651
0
LINE
8
0
10
77.4997884
20
46.7857651
11
60.5960864
21
51.3150984
0
LINE
8
0
10
60.5960864
20
51.3150984
11
56.3255722
21
35.3773223
0
LINE
8
0
10
59.9948276
20
-20.4754893
11
76.8985296
21
-25.0048226
0
LINE
8
0
10
76.8985296
20
-25.0048226
11
81.1690438
21
-9.0670465
0
LINE
8
0
10
81.1690438
20
-9.0670465
11
64.2653418
21
-4.5377132
0
LINE
8
0
10
64.2653418
20
-4.5377132
11
59.9948276
21
-20.4754893
0
LINE
8
0
10
64.3947514
20
-4.0547502
11
81.2984534
21
-8.5840835
0
LINE
8
0
10
81.2984534
20
-8.5840835
11
85.5689676
21
7.3536926
0
LINE
8
0
10
85.5689676
20
7.3536926
11
68.6652656
21
11.8830259
0
LINE
8
0
10
68.6652656
20
11.8830259
11
64.3947514
21
-4.0547502
0
LINE
8
0
10
68.7946752
20
12.3659888
11
85.6983772
21
7.8366555
0
LINE
8
0
10
85.6983772
20
7.8366555
11
89.9688914
21
23.7744316
0
LINE
8
0
10
89.9688914
20
23.7744316
11
73.0651894
21
28.3037649
0
LINE
8
0
10
73.0651894
20
28.3037649
11
68.7946752
21
12.3659888
0
LINE
8
0
10
73.194599
20
28.7867279
11
90.098301
21
24.2573946
0
LINE
8
0
10
90.098301
20
24.2573946
11
94.3688152
21
40.1951707
0
LINE
8
0
10
94.3688152
20
40.1951707
11
77.4651132
21
44.724504
0
LINE
8
0
10
77.4651132
20
44.724504
11
73.194599
21
28.7867279
0
LINE
8
0
10
76.8638543
20
-27.0660838
11
93.7675563
21
-31.5954171
0
LINE
8
0
10
93.7675563
20
-31.5954171
11
98.0380705
21
-15.657641
0
LINE
8
0
10
98.0380705
20
-15.657641
11
81.1343685
21
-11.1283077
0
LINE
8
0
10
81.1343685
20
-11.1283077
11
76.8638543
21
-27.0660838
0
LINE
8
0
10
81.2637781
20
-10.6453448
11
98.1674801
21
-15.1746781
0
LINE
8
0
10
98.1674801
20
-15.1746781
11
102.4379943
21
0.763098
0
LINE
8
0
10
102.4379943
20
0.763098
11
85.5342923
21
5.2924313
0
LINE
8
0
10
85.5342923
20
5.2924313
11
81.2637781
21
-10.6453448
0
LINE
8
0
10
85.6637019
20
5.7753943
11
102.5674039
21
1.246061
0
LINE
8
0
10
102.5674039
20
1.246061
11
106.8379181
21
17.1838371
0
LINE
8
0
10
106.8379181
20
17.1838371
11
89.9342161
21
21.7131704
0
LINE
8
0
10
89.9342161
20
21.7131704
11
85.6637019
21
5.7753943
0
LINE
8
0
10
90.0636257
20
22.1961334
11
106.9673277
21
17.6668001
0
LINE
8
0
10
106.9673277
20
17.6668001
11
111.2378419
21
33.6045762
0
LINE
8
0
10
111.2378419
20
33.6045762
11
94.3341399
21
38.1339095
0
LINE
8
0
10
94.3341399
20
38.1339095
11
90.0636257
21
22.1961334
0
LINE
8
0
10
31.8054216
20
-37.677004
11
49.2388288
21
-39.2022295
0
LINE
8
0
10
49.2388288
20
-39.2022295
11
50.6768986
21
-22.765017
0
LINE
8
0
10
50.6768986
20
-22.765017
11
33.2434914
21
-21.2397915
0
LINE
8
0
10
33.2434914
20
-21.2397915
11
31.8054216
21
-37.677004
0
LINE
8
0
10
49.6847265
20
-39.2808533
11
66.5884285
21
-43.8101866
0
LINE
8
0
10
66.5884285
20
-43.8101866
11
70.8589427
21
-27.8724105
0
LINE
8
0
10
70.8589427
20
-27.8724105
11
53.9552407
21
-23.3430772
0
LINE
8
0
10
53.9552407
20
-23.3430772
11
49.6847265
21
-39.2808533
0
LINE
8
0
10
67.013899
20
-43.9650454
11
82.8742853
21
-51.3608649
0
LINE
8
0
10
82.8742853
20
-51.3608649
11
89.8474866
21
-36.4067864
0
LINE
8
0
10
89.8474866
20
-36.4067864
11
73.9871003
21
-29.0109669
0
LINE
8
0
10
73.9871003
20
-29.0109669
11
67.013899
21
-43.9650454
0
LINE
8
0
10
81.2711398
20
-53.6824396
11
94.6769176
21
-64.9312227
0
LINE
8
0
10
94.6769176
20
-64.9312227
11
105.2829132
21
-52.2914894
0
LINE
8
0
10
105.2829132
20
-52.2914894
11
91.8771354
21
-41.0427063
0
LINE
8
0
10
91.8771354
20
-41.0427063
11
81.2711398
21
-53.6824396
0
LINE
8
0
10
92.1985292
20
-40.659684
11
105.604307
21
-51.9084671
0
LINE
8
0
10
105.604307
20
-51.9084671
11
116.2103026
21
-39.2687338
0
LINE
8
0
10
116.2103026
20
-39.2687338
11
102.8045248
21
-28.0199507
0
LINE
8
0
10
102.8045248
20
-28.0199507
11
92.1985292
21
-40.659684
0
LINE
8
0
10
92.1511057
20
-67.0435036
11
102.1886934
21
-81.3786644
0
LINE
8
0
10
102.1886934
20
-81.3786644
11
115.7047021
21
-71.9146532
0
LINE
8
0
10
115.7047021
20
-71.9146532
11
105.6671144
21
-57.5794924
0
LINE
8
0
10
105.6671144
20
-57.5794924
11
92.1511057
21
-67.0435036
0
LINE
8
0
10
106.0766905
20
-57.2927042
11
116.1142782
21
-71.627865
0
LINE
8
0
10
116.1142782
20
-71.627865
11
129.6302869
21
-62.1638538
0
LINE
8
0
10
129.6302869
20
-62.1638538
11
119.5926992
21
-47.828693
0
LINE
8
0
10
119.5926992
20
-47.828693
11
106.0766905
21
-57.2927042
0
ENDSEC
0
EOF