<svg width="142.872mm" height="143.529mm" viewBox="0 0 142.872 143.529" xmlns="http://www.w3.org/2000/svg"><g id="svgGroup" stroke-linecap="round" fill-rule="evenodd" font-size="9pt" stroke="#000" stroke-width="0.25mm" fill="none" style="stroke:#000;stroke-width:0.25mm;fill:none"><path d="M 0.034 66.424 L 17.634 0.741 A 1 1 0 0 1 18.859 0.034 L 51.7 8.834 A 1 1 0 0 0 52.925 8.127 L 53.442 6.195 A 1 1 0 0 1 54.667 5.488 L 70.122 9.629 A 1 1 0 0 0 71.347 8.922 A 1 1 0 0 1 72.571 8.215 L 89.968 12.876 A 1 1 0 0 1 90.677 14.091 L 90.672 14.111 A 1 1 0 0 0 91.382 15.326 L 106.827 19.464 A 1 1 0 0 1 107.534 20.689 A 1 1 0 0 0 108.241 21.914 L 123.696 26.055 A 1 1 0 0 1 124.403 27.279 L 111.298 76.188 A 1 1 0 0 0 111.325 76.79 L 115.218 87.452 A 1 1 0 0 0 115.515 87.876 L 128.902 99.109 A 1 1 0 0 1 129.191 99.513 L 132.323 107.596 A 1 1 0 0 0 132.436 107.808 L 142.691 122.454 A 1 1 0 0 1 142.445 123.846 L 114.594 143.348 A 1 1 0 0 1 113.201 143.102 L 102.902 128.393 A 1 1 0 0 0 102.85 128.325 L 91.494 114.747 A 1 1 0 0 0 91.286 114.559 L 78.515 105.963 L 78.206 105.832 L 61.29 101.3 A 1 1 0 0 0 61.119 101.27 L 43.6 99.725 A 1 1 0 0 1 42.737 99.04 L 35.683 77.481 A 1 1 0 0 0 34.991 76.826 L 0.741 67.649 A 1 1 0 0 1 0.034 66.424 Z" vector-effect="non-scaling-stroke"/></g></svg>