<svg width="142.872mm" height="143.529mm" viewBox="0 0 142.872 143.529" xmlns="http://www.w3.org/2000/svg"><g id="svgGroup" stroke-linecap="round" fill-rule="evenodd" font-size="9pt" stroke="#000" stroke-width="0.25mm" fill="none" style="stroke:#000;stroke-width:0.25mm;fill:none"><path d="M 0.034 66.424 L 17.634 0.741 A 1 1 0 0 1 18.859 0.034 L 51.7 8.834 A 1 1 0 0 0 52.925 8.127 L 53.442 6.195 A 1 1 0 0 1 54.667 5.488 L 70.122 9.629 A 1 1 0 0 0 71.347 8.922 A 1 1 0 0 1 72.571 8.215 L 89.968 12.876 A 1 1 0 0 1 90.677 14.091 L 90.672 14.111 A 1 1 0 0 0 91.382 15.326 L 106.827 19.464 A 1 1 0 0 1 107.534 20.689 A 1 1 0 0 0 108.241 21.914 L 123.696 26.055 A 1 1 0 0 1 124.403 27.279 L 111.298 76.188 A 1 1 0 0 0 111.325 76.79 L 115.218 87.452 A 1 1 0 0 0 115.515 87.876 L 128.902 99.109 A 1 1 0 0 1 129.191 99.513 L 132.323 107.596 A 1 1 0 0 0 132.436 107.808 L 142.691 122.454 A 1 1 0 0 1 142.445 123.846 L 114.594 143.348 A 1 1 0 0 1 113.201 143.102 L 102.902 128.393 A 1 1 0 0 0 102.85 128.325 L 91.494 114.747 A 1 1 0 0 0 91.286 114.559 L 78.515 105.963 L 78.206 105.832 L 61.29 101.3 A 1 1 0 0 0 61.119 101.27 L 43.6 99.725 A 1 1 0 0 1 42.737 99.04 L 35.683 77.481 A 1 1 0 0 0 34.991 76.826 L 0.741 67.649 A 1 1 0 0 1 0.034 66.424 Z M 106.377 101.617 L 116.948 110.487 L 125.819 99.916 L 115.247 91.045 L 106.377 101.617 Z M 95.449 114.639 L 106.021 123.51 L 114.891 112.938 L 104.32 104.068 L 95.449 114.639 Z M 3.443 65.681 L 16.772 69.253 L 20.344 55.923 L 7.014 52.351 L 3.443 65.681 Z M 7.842 49.26 L 21.172 52.832 L 24.744 39.502 L 11.414 35.93 L 7.842 49.26 Z M 12.242 32.84 L 25.572 36.411 L 29.144 23.081 L 15.814 19.51 L 12.242 32.84 Z M 39.251 71.135 L 52.581 74.706 L 56.153 61.377 L 42.823 57.805 L 39.251 71.135 Z M 52.451 21.873 L 65.781 25.444 L 69.352 12.114 L 56.023 8.543 L 52.451 21.873 Z M 57.155 73.862 L 70.485 77.433 L 74.057 64.104 L 60.727 60.532 L 57.155 73.862 Z M 61.555 57.441 L 74.885 61.013 L 78.457 47.683 L 65.127 44.111 L 61.555 57.441 Z M 16.642 16.419 L 29.972 19.99 L 33.544 6.661 L 20.214 3.089 L 16.642 16.419 Z M 20.829 70.34 L 34.159 73.911 L 37.731 60.582 L 24.401 57.01 L 20.829 70.34 Z M 25.229 53.919 L 38.559 57.491 L 42.131 44.161 L 28.801 40.589 L 25.229 53.919 Z M 29.629 37.498 L 42.959 41.07 L 46.531 27.74 L 33.201 24.168 L 29.629 37.498 Z M 34.029 21.078 L 47.359 24.649 L 50.93 11.319 L 37.601 7.748 L 34.029 21.078 Z M 43.651 54.714 L 56.981 58.286 L 60.553 44.956 L 47.223 41.384 L 43.651 54.714 Z M 48.051 38.293 L 61.381 41.865 L 64.952 28.535 L 51.623 24.964 L 48.051 38.293 Z M 65.955 41.02 L 79.285 44.592 L 82.857 31.262 L 69.527 27.69 L 65.955 41.02 Z M 70.355 24.599 L 83.685 28.171 L 87.257 14.841 L 73.927 11.27 L 70.355 24.599 Z M 74.024 80.452 L 87.354 84.024 L 90.926 70.694 L 77.596 67.122 L 74.024 80.452 Z M 78.424 64.032 L 91.754 67.603 L 95.326 54.273 L 81.996 50.702 L 78.424 64.032 Z M 82.824 47.611 L 96.154 51.182 L 99.726 37.853 L 86.396 34.281 L 82.824 47.611 Z M 87.224 31.19 L 100.554 34.762 L 104.126 21.432 L 90.796 17.86 L 87.224 31.19 Z M 90.894 87.043 L 104.223 90.615 L 107.795 77.285 L 94.465 73.713 L 90.894 87.043 Z M 95.293 70.622 L 108.623 74.194 L 112.195 60.864 L 98.865 57.292 L 95.293 70.622 Z M 99.693 54.201 L 113.023 57.773 L 116.595 44.443 L 103.265 40.872 L 99.693 54.201 Z M 104.093 37.781 L 117.423 41.352 L 120.995 28.023 L 107.665 24.451 L 104.093 37.781 Z M 63.714 99.258 L 77.044 102.829 L 80.616 89.5 L 67.286 85.928 L 63.714 99.258 Z M 106.211 128.587 L 114.127 139.891 L 125.431 131.976 L 117.516 120.671 L 106.211 128.587 Z M 120.137 118.836 L 128.052 130.14 L 139.357 122.225 L 131.441 110.92 L 120.137 118.836 Z M 45.659 97.295 L 59.407 98.498 L 60.61 84.751 L 46.862 83.548 L 45.659 97.295 Z M 81.154 104.325 L 93.661 110.157 L 99.494 97.65 L 86.987 91.818 L 81.154 104.325 Z" vector-effect="non-scaling-stroke"/></g></svg>