0
SECTION
2
HEADER
9
$INSUNITS
70
4
0
ENDSEC
0
SECTION
2
TABLES
0
TABLE
2
LTYPE
0
LTYPE
72
65
70
64
2
CONTINUOUS
3
______
73
0
40
0
0
ENDTAB
0
TABLE
2
LAYER
0
ENDTAB
0
ENDSEC
0
SECTION
2
ENTITIES
0
LINE
8
0
10
-11.8592202
20
-5.6221791
11
5.7404751
21
60.0607772
0
LINE
8
0
10
6.9652199
20
60.767884
11
39.8066981
21
51.9680364
0
LINE
8
0
10
41.0314429
20
52.6751431
11
41.549081
21
54.6069949
0
LINE
8
0
10
42.7738258
20
55.3141016
11
58.2286391
21
51.1729968
0
LINE
8
0
10
59.4533839
20
51.8801036
11
59.453384
21
51.8801037
0
LINE
8
0
10
60.6781288
20
52.5872105
11
78.0744046
21
47.9258924
0
LINE
8
0
10
78.7840512
20
46.7108193
11
78.7790682
21
46.6914499
0
LINE
8
0
10
79.4887148
20
45.4763768
11
94.9338204
21
41.3378733
0
LINE
8
0
10
95.6409272
20
40.1131284
11
95.6409272
21
40.1131283
0
LINE
8
0
10
96.348034
20
38.8883834
11
111.8028472
21
34.7472787
0
LINE
8
0
10
112.509954
20
33.5225339
11
99.4048762
21
-15.3862817
0
LINE
8
0
10
99.4314642
20
-15.988094
11
103.3247838
21
-26.6505247
0
LINE
8
0
10
103.621334
20
-27.0735758
11
117.0084517
21
-38.3067013
0
LINE
8
0
10
117.2981293
20
-38.711486
11
120.4294563
21
-46.7939088
0
LINE
8
0
10
120.5427695
20
-47.0062255
11
130.7976211
21
-61.6516713
0
LINE
8
0
10
130.5520455
20
-63.0443997
11
102.7008758
21
-82.5459986
0
LINE
8
0
10
101.3081474
20
-82.300423
11
91.0083461
21
-67.5907821
0
LINE
8
0
10
90.956286
20
-67.5228213
11
79.6011141
21
-53.9453372
0
LINE
8
0
10
79.3924082
20
-53.7572931
11
66.6215723
21
-45.1613228
0
LINE
8
0
10
66.6215723
20
-45.1613228
11
66.3132009
21
-45.0305348
0
LINE
8
0
10
66.3132009
20
-45.0305348
11
49.3971015
21
-40.4978797
0
LINE
8
0
10
49.2260788
20
-40.467667
11
31.7063475
21
-38.923537
0
LINE
8
0
10
30.8437251
20
-38.2383716
11
23.789647
21
-16.6791796
0
LINE
8
0
10
23.0980473
20
-16.0242269
11
-11.1521134
21
-6.8469239
0
ARC
8
0
10
6.7064009
20
59.8019582
40
1
50
75.0000021
51
165.0000021
0
ARC
8
0
10
40.0655171
20
52.9339622
40
1
50
255.0000021
51
344.9999966
0
ARC
8
0
10
42.5150068
20
54.3481758
40
1
50
75.0000021
51
164.9999966
0
ARC
8
0
10
58.4874581
20
52.1389226
40
1
50
255.0000021
51
345.0000021
0
ARC
8
0
10
60.4193098
20
51.6212847
40
1
50
75.0000021
51
165.0000021
0
ARC
8
0
10
77.8155856
20
46.9599666
40
1
50
345.5729404
51
75.0000021
0
ARC
8
0
10
79.7475338
20
46.4423026
40
1
50
165.5729404
51
255.0000021
0
ARC
8
0
10
94.6750014
20
40.3719475
40
1
50
344.9999966
51
75.0000021
0
ARC
8
0
10
96.606853
20
39.8543092
40
1
50
164.9999966
51
255.0000021
0
ARC
8
0
10
111.5440282
20
33.7813529
40
1
50
345.0000021
51
75.0000021
0
ARC
8
0
10
100.370802
20
-15.6451007
40
1
50
165.0000021
51
200.0593484
0
ARC
8
0
10
104.2641216
20
-26.3075314
40
1
50
200.0593484
51
229.9999988
0
ARC
8
0
10
116.3656641
20
-39.0727457
40
1
50
21.1775796
51
49.9999988
0
ARC
8
0
10
121.3619215
20
-46.4326491
40
1
50
201.1775796
51
214.9999997
0
ARC
8
0
10
129.9784691
20
-62.2252477
40
1
50
304.9999997
51
34.9999997
0
ARC
8
0
10
102.1272994
20
-81.7268466
40
1
50
214.9999997
51
304.9999997
0
ARC
8
0
10
90.1891941
20
-68.1643585
40
1
50
34.9999997
51
39.9065413
0
ARC
8
0
10
78.8340222
20
-54.5868744
40
1
50
39.9065413
51
56.0557489
0
ARC
8
0
10
49.1382825
20
-41.4638055
40
1
50
75.0000021
51
84.9631578
0
ARC
8
0
10
31.7941438
20
-37.9273985
40
1
50
198.117884
51
264.9631578
0
ARC
8
0
10
22.8392283
20
-16.9901527
40
1
50
18.117884
51
75.0000021
0
ARC
8
0
10
-10.8932944
20
-5.8809981
40
1
50
165.0000021
51
255.0000021
0
ENDSEC
0
EOF