<svg width="142.872mm" height="143.529mm" viewBox="0 0 142.872 143.529" xmlns="http://www.w3.org/2000/svg"><g id="svgGroup" stroke-linecap="round" fill-rule="evenodd" font-size="9pt" stroke="#000" stroke-width="0.25mm" fill="none" style="stroke:#000;stroke-width:0.25mm;fill:none"><path d="M 0.034 66.424 L 17.634 0.741 A 1 1 0 0 1 18.859 0.034 L 51.7 8.834 A 1 1 0 0 0 52.925 8.127 L 53.442 6.195 A 1 1 0 0 1 54.667 5.488 L 70.122 9.629 A 1 1 0 0 0 71.347 8.922 A 1 1 0 0 1 72.571 8.215 L 89.968 12.876 A 1 1 0 0 1 90.677 14.091 L 90.672 14.111 A 1 1 0 0 0 91.382 15.326 L 106.827 19.464 A 1 1 0 0 1 107.534 20.689 A 1 1 0 0 0 108.241 21.914 L 123.696 26.055 A 1 1 0 0 1 124.403 27.279 L 111.298 76.188 A 1 1 0 0 0 111.325 76.79 L 115.218 87.452 A 1 1 0 0 0 115.515 87.876 L 128.902 99.109 A 1 1 0 0 1 129.191 99.513 L 132.323 107.596 A 1 1 0 0 0 132.436 107.808 L 142.691 122.454 A 1 1 0 0 1 142.445 123.846 L 114.594 143.348 A 1 1 0 0 1 113.201 143.102 L 102.902 128.393 A 1 1 0 0 0 102.85 128.325 L 91.494 114.747 A 1 1 0 0 0 91.286 114.559 L 78.515 105.963 L 78.206 105.832 L 61.29 101.3 A 1 1 0 0 0 61.119 101.27 L 43.6 99.725 A 1 1 0 0 1 42.737 99.04 L 35.683 77.481 A 1 1 0 0 0 34.991 76.826 L 0.741 67.649 A 1 1 0 0 1 0.034 66.424 Z M 104.044 127.845 L 114.082 142.181 L 127.598 132.717 L 117.56 118.381 L 104.044 127.845 Z M 117.97 118.095 L 128.008 132.43 L 141.524 122.966 L 131.486 108.631 L 117.97 118.095 Z M 93.164 114.484 L 106.57 125.733 L 117.176 113.093 L 103.77 101.845 L 93.164 114.484 Z M 104.092 101.462 L 117.498 112.71 L 128.104 100.071 L 114.698 88.822 L 104.092 101.462 Z M 1.306 66.506 L 18.21 71.036 L 22.48 55.098 L 5.577 50.568 L 1.306 66.506 Z M 5.706 50.085 L 22.61 54.615 L 26.88 38.677 L 9.977 34.148 L 5.706 50.085 Z M 10.106 33.665 L 27.01 38.194 L 31.28 22.256 L 14.377 17.727 L 10.106 33.665 Z M 14.506 17.244 L 31.41 21.773 L 35.68 5.836 L 18.776 1.306 L 14.506 17.244 Z M 18.693 71.165 L 35.597 75.694 L 39.867 59.756 L 22.963 55.227 L 18.693 71.165 Z M 23.093 54.744 L 39.996 59.274 L 44.267 43.336 L 27.363 38.806 L 23.093 54.744 Z M 31.893 21.903 L 48.796 26.432 L 53.067 10.494 L 36.163 5.965 L 31.893 21.903 Z M 37.115 71.96 L 54.018 76.489 L 58.289 60.552 L 41.385 56.022 L 37.115 71.96 Z M 50.315 22.698 L 67.218 27.227 L 71.489 11.289 L 54.585 6.76 L 50.315 22.698 Z M 59.419 58.266 L 76.323 62.795 L 80.593 46.858 L 63.69 42.328 L 59.419 58.266 Z M 63.819 41.845 L 80.723 46.375 L 84.993 30.437 L 68.089 25.908 L 63.819 41.845 Z M 101.957 38.606 L 118.861 43.135 L 123.131 27.197 L 106.227 22.668 L 101.957 38.606 Z M 27.493 38.323 L 44.396 42.853 L 48.667 26.915 L 31.763 22.386 L 27.493 38.323 Z M 41.515 55.539 L 58.418 60.069 L 62.689 44.131 L 45.785 39.601 L 41.515 55.539 Z M 45.915 39.118 L 62.818 43.648 L 67.089 27.71 L 50.185 23.181 L 45.915 39.118 Z M 55.019 74.687 L 71.923 79.216 L 76.193 63.278 L 59.29 58.749 L 55.019 74.687 Z M 68.219 25.425 L 85.123 29.954 L 89.393 14.016 L 72.489 9.487 L 68.219 25.425 Z M 71.888 81.277 L 88.792 85.807 L 93.062 69.869 L 76.159 65.34 L 71.888 81.277 Z M 76.288 64.857 L 93.192 69.386 L 97.462 53.448 L 80.559 48.919 L 76.288 64.857 Z M 88.757 87.868 L 105.661 92.397 L 109.931 76.46 L 93.028 71.93 L 88.757 87.868 Z M 93.157 71.447 L 110.061 75.977 L 114.331 60.039 L 97.428 55.51 L 93.157 71.447 Z M 61.578 100.083 L 78.482 104.612 L 82.752 88.674 L 65.849 84.145 L 61.578 100.083 Z M 80.688 48.436 L 97.592 52.965 L 101.862 37.028 L 84.958 32.498 L 80.688 48.436 Z M 85.088 32.015 L 101.992 36.545 L 106.262 20.607 L 89.358 16.077 L 85.088 32.015 Z M 97.557 55.027 L 114.461 59.556 L 118.731 43.618 L 101.828 39.089 L 97.557 55.027 Z M 78.907 104.767 L 94.768 112.163 L 101.741 97.209 L 85.88 89.813 L 78.907 104.767 Z M 43.699 98.479 L 61.132 100.004 L 62.57 83.567 L 45.137 82.042 L 43.699 98.479 Z" vector-effect="non-scaling-stroke"/></g></svg>