0
SECTION
2
HEADER
9
$INSUNITS
70
4
0
ENDSEC
0
SECTION
2
TABLES
0
TABLE
2
LTYPE
0
LTYPE
72
65
70
64
2
CONTINUOUS
3
______
73
0
40
0
0
ENDTAB
0
TABLE
2
LAYER
0
ENDTAB
0
ENDSEC
0
SECTION
2
ENTITIES
0
LINE
8
0
10
-11.8592202
20
-5.6221791
11
5.7404751
21
60.0607772
0
LINE
8
0
10
6.9652199
20
60.767884
11
39.8066981
21
51.9680364
0
LINE
8
0
10
41.0314429
20
52.6751431
11
41.549081
21
54.6069949
0
LINE
8
0
10
42.7738258
20
55.3141016
11
58.2286391
21
51.1729968
0
LINE
8
0
10
59.4533839
20
51.8801036
11
59.453384
21
51.8801037
0
LINE
8
0
10
60.6781288
20
52.5872105
11
78.0744046
21
47.9258924
0
LINE
8
0
10
78.7840512
20
46.7108193
11
78.7790682
21
46.6914499
0
LINE
8
0
10
79.4887148
20
45.4763768
11
94.9338204
21
41.3378733
0
LINE
8
0
10
95.6409272
20
40.1131284
11
95.6409272
21
40.1131283
0
LINE
8
0
10
96.348034
20
38.8883834
11
111.8028472
21
34.7472787
0
LINE
8
0
10
112.509954
20
33.5225339
11
99.4048762
21
-15.3862817
0
LINE
8
0
10
99.4314642
20
-15.988094
11
103.3247838
21
-26.6505247
0
LINE
8
0
10
103.621334
20
-27.0735758
11
117.0084517
21
-38.3067013
0
LINE
8
0
10
117.2981293
20
-38.711486
11
120.4294563
21
-46.7939088
0
LINE
8
0
10
120.5427695
20
-47.0062255
11
130.7976211
21
-61.6516713
0
LINE
8
0
10
130.5520455
20
-63.0443997
11
102.7008758
21
-82.5459986
0
LINE
8
0
10
101.3081474
20
-82.300423
11
91.0083461
21
-67.5907821
0
LINE
8
0
10
90.956286
20
-67.5228213
11
79.6011141
21
-53.9453372
0
LINE
8
0
10
79.3924082
20
-53.7572931
11
66.6215723
21
-45.1613228
0
LINE
8
0
10
66.6215723
20
-45.1613228
11
66.3132009
21
-45.0305348
0
LINE
8
0
10
66.3132009
20
-45.0305348
11
49.3971015
21
-40.4978797
0
LINE
8
0
10
49.2260788
20
-40.467667
11
31.7063475
21
-38.923537
0
LINE
8
0
10
30.8437251
20
-38.2383716
11
23.789647
21
-16.6791796
0
LINE
8
0
10
23.0980473
20
-16.0242269
11
-11.1521134
21
-6.8469239
0
ARC
8
0
10
6.7064009
20
59.8019582
40
1
50
75.0000021
51
165.0000021
0
ARC
8
0
10
40.0655171
20
52.9339622
40
1
50
255.0000021
51
344.9999966
0
ARC
8
0
10
42.5150068
20
54.3481758
40
1
50
75.0000021
51
164.9999966
0
ARC
8
0
10
58.4874581
20
52.1389226
40
1
50
255.0000021
51
345.0000021
0
ARC
8
0
10
60.4193098
20
51.6212847
40
1
50
75.0000021
51
165.0000021
0
ARC
8
0
10
77.8155856
20
46.9599666
40
1
50
345.5729404
51
75.0000021
0
ARC
8
0
10
79.7475338
20
46.4423026
40
1
50
165.5729404
51
255.0000021
0
ARC
8
0
10
94.6750014
20
40.3719475
40
1
50
344.9999966
51
75.0000021
0
ARC
8
0
10
96.606853
20
39.8543092
40
1
50
164.9999966
51
255.0000021
0
ARC
8
0
10
111.5440282
20
33.7813529
40
1
50
345.0000021
51
75.0000021
0
ARC
8
0
10
100.370802
20
-15.6451007
40
1
50
165.0000021
51
200.0593484
0
ARC
8
0
10
104.2641216
20
-26.3075314
40
1
50
200.0593484
51
229.9999988
0
ARC
8
0
10
116.3656641
20
-39.0727457
40
1
50
21.1775796
51
49.9999988
0
ARC
8
0
10
121.3619215
20
-46.4326491
40
1
50
201.1775796
51
214.9999997
0
ARC
8
0
10
129.9784691
20
-62.2252477
40
1
50
304.9999997
51
34.9999997
0
ARC
8
0
10
102.1272994
20
-81.7268466
40
1
50
214.9999997
51
304.9999997
0
ARC
8
0
10
90.1891941
20
-68.1643585
40
1
50
34.9999997
51
39.9065413
0
ARC
8
0
10
78.8340222
20
-54.5868744
40
1
50
39.9065413
51
56.0557489
0
ARC
8
0
10
49.1382825
20
-41.4638055
40
1
50
75.0000021
51
84.9631578
0
ARC
8
0
10
31.7941438
20
-37.9273985
40
1
50
198.117884
51
264.9631578
0
ARC
8
0
10
22.8392283
20
-16.9901527
40
1
50
18.117884
51
75.0000021
0
ARC
8
0
10
-10.8932944
20
-5.8809981
40
1
50
165.0000021
51
255.0000021
0
LINE
8
0
10
-8.4507396
20
-4.8790368
11
4.8790368
21
-8.4507396
0
LINE
8
0
10
4.8790368
20
-8.4507396
11
8.4507396
21
4.8790368
0
LINE
8
0
10
8.4507396
20
4.8790368
11
-4.8790368
21
8.4507396
0
LINE
8
0
10
-4.8790368
20
8.4507396
11
-8.4507396
21
-4.8790368
0
LINE
8
0
10
-4.0508158
20
11.5417023
11
9.2789606
21
7.9699995
0
LINE
8
0
10
9.2789606
20
7.9699995
11
12.8506634
21
21.2997759
0
LINE
8
0
10
12.8506634
20
21.2997759
11
-0.479113
21
24.8714787
0
LINE
8
0
10
-0.479113
20
24.8714787
11
-4.0508158
21
11.5417023
0
LINE
8
0
10
0.349108
20
27.9624413
11
13.6788844
21
24.3907385
0
LINE
8
0
10
13.6788844
20
24.3907385
11
17.2505872
21
37.7205149
0
LINE
8
0
10
17.2505872
20
37.7205149
11
3.9208108
21
41.2922177
0
LINE
8
0
10
3.9208108
20
41.2922177
11
0.349108
21
27.9624413
0
LINE
8
0
10
4.7490318
20
44.3831804
11
18.0788082
21
40.8114776
0
LINE
8
0
10
18.0788082
20
40.8114776
11
21.650511
21
54.141254
0
LINE
8
0
10
21.650511
20
54.141254
11
8.3207346
21
57.7129568
0
LINE
8
0
10
8.3207346
20
57.7129568
11
4.7490318
21
44.3831804
0
LINE
8
0
10
8.9359253
20
-9.5377796
11
22.2657017
21
-13.1094824
0
LINE
8
0
10
22.2657017
20
-13.1094824
11
25.8374045
21
0.220294
0
LINE
8
0
10
25.8374045
20
0.220294
11
12.5076281
21
3.7919968
0
LINE
8
0
10
12.5076281
20
3.7919968
11
8.9359253
21
-9.5377796
0
LINE
8
0
10
13.3358491
20
6.8829595
11
26.6656255
21
3.3112567
0
LINE
8
0
10
26.6656255
20
3.3112567
11
30.2373283
21
16.6410331
0
LINE
8
0
10
30.2373283
20
16.6410331
11
16.9075519
21
20.2127359
0
LINE
8
0
10
16.9075519
20
20.2127359
11
13.3358491
21
6.8829595
0
LINE
8
0
10
17.7357729
20
23.3036985
11
31.0655493
21
19.7319957
0
LINE
8
0
10
31.0655493
20
19.7319957
11
34.6372521
21
33.0617721
0
LINE
8
0
10
34.6372521
20
33.0617721
11
21.3074757
21
36.6334749
0
LINE
8
0
10
21.3074757
20
36.6334749
11
17.7357729
21
23.3036985
0
LINE
8
0
10
22.1356967
20
39.7244376
11
35.4654731
21
36.1527348
0
LINE
8
0
10
35.4654731
20
36.1527348
11
39.0371759
21
49.4825112
0
LINE
8
0
10
39.0371759
20
49.4825112
11
25.7073995
21
53.054214
0
LINE
8
0
10
25.7073995
20
53.054214
11
22.1356967
21
39.7244376
0
LINE
8
0
10
27.3578664
20
-10.3328192
11
40.6876428
21
-13.904522
0
LINE
8
0
10
40.6876428
20
-13.904522
11
44.2593456
21
-0.5747456
0
LINE
8
0
10
44.2593456
20
-0.5747456
11
30.9295692
21
2.9969572
0
LINE
8
0
10
30.9295692
20
2.9969572
11
27.3578664
21
-10.3328192
0
LINE
8
0
10
31.7577902
20
6.0879199
11
45.0875666
21
2.5162171
0
LINE
8
0
10
45.0875666
20
2.5162171
11
48.6592694
21
15.8459935
0
LINE
8
0
10
48.6592694
20
15.8459935
11
35.329493
21
19.4176963
0
LINE
8
0
10
35.329493
20
19.4176963
11
31.7577902
21
6.0879199
0
LINE
8
0
10
36.157714
20
22.508659
11
49.4874904
21
18.9369562
0
LINE
8
0
10
49.4874904
20
18.9369562
11
53.0591932
21
32.2667326
0
LINE
8
0
10
53.0591932
20
32.2667326
11
39.7294168
21
35.8384354
0
LINE
8
0
10
39.7294168
20
35.8384354
11
36.157714
21
22.508659
0
LINE
8
0
10
40.5576378
20
38.929398
11
53.8874142
21
35.3576952
0
LINE
8
0
10
53.8874142
20
35.3576952
11
57.459117
21
48.6874716
0
LINE
8
0
10
57.459117
20
48.6874716
11
44.1293406
21
52.2591744
0
LINE
8
0
10
44.1293406
20
52.2591744
11
40.5576378
21
38.929398
0
LINE
8
0
10
45.2621693
20
-13.0597103
11
58.5919457
21
-16.6314131
0
LINE
8
0
10
58.5919457
20
-16.6314131
11
62.1636485
21
-3.3016367
0
LINE
8
0
10
62.1636485
20
-3.3016367
11
48.8338721
21
0.2700661
0
LINE
8
0
10
48.8338721
20
0.2700661
11
45.2621693
21
-13.0597103
0
LINE
8
0
10
49.6620931
20
3.3610288
11
62.9918695
21
-0.210674
0
LINE
8
0
10
62.9918695
20
-0.210674
11
66.5635723
21
13.1191024
0
LINE
8
0
10
66.5635723
20
13.1191024
11
53.2337959
21
16.6908052
0
LINE
8
0
10
53.2337959
20
16.6908052
11
49.6620931
21
3.3610288
0
LINE
8
0
10
54.0620169
20
19.7817679
11
67.3917933
21
16.2100651
0
LINE
8
0
10
67.3917933
20
16.2100651
11
70.9634961
21
29.5398415
0
LINE
8
0
10
70.9634961
20
29.5398415
11
57.6337197
21
33.1115443
0
LINE
8
0
10
57.6337197
20
33.1115443
11
54.0620169
21
19.7817679
0
LINE
8
0
10
58.4619407
20
36.2025069
11
71.7917171
21
32.6308041
0
LINE
8
0
10
71.7917171
20
32.6308041
11
75.3634199
21
45.9605805
0
LINE
8
0
10
75.3634199
20
45.9605805
11
62.0336435
21
49.5322833
0
LINE
8
0
10
62.0336435
20
49.5322833
11
58.4619407
21
36.2025069
0
LINE
8
0
10
62.1311961
20
-19.6503047
11
75.4609725
21
-23.2220075
0
LINE
8
0
10
75.4609725
20
-23.2220075
11
79.0326753
21
-9.8922311
0
LINE
8
0
10
79.0326753
20
-9.8922311
11
65.7028989
21
-6.3205283
0
LINE
8
0
10
65.7028989
20
-6.3205283
11
62.1311961
21
-19.6503047
0
LINE
8
0
10
66.5311199
20
-3.2295656
11
79.8608963
21
-6.8012684
0
LINE
8
0
10
79.8608963
20
-6.8012684
11
83.4325991
21
6.528508
0
LINE
8
0
10
83.4325991
20
6.528508
11
70.1028227
21
10.1002108
0
LINE
8
0
10
70.1028227
20
10.1002108
11
66.5311199
21
-3.2295656
0
LINE
8
0
10
70.9310437
20
13.1911734
11
84.2608201
21
9.6194706
0
LINE
8
0
10
84.2608201
20
9.6194706
11
87.8325229
21
22.949247
0
LINE
8
0
10
87.8325229
20
22.949247
11
74.5027465
21
26.5209498
0
LINE
8
0
10
74.5027465
20
26.5209498
11
70.9310437
21
13.1911734
0
LINE
8
0
10
75.3309675
20
29.6119125
11
88.6607439
21
26.0402097
0
LINE
8
0
10
88.6607439
20
26.0402097
11
92.2324467
21
39.3699861
0
LINE
8
0
10
92.2324467
20
39.3699861
11
78.9026703
21
42.9416889
0
LINE
8
0
10
78.9026703
20
42.9416889
11
75.3309675
21
29.6119125
0
LINE
8
0
10
79.0002228
20
-26.2408992
11
92.3299992
21
-29.812602
0
LINE
8
0
10
92.3299992
20
-29.812602
11
95.901702
21
-16.4828256
0
LINE
8
0
10
95.901702
20
-16.4828256
11
82.5719256
21
-12.9111228
0
LINE
8
0
10
82.5719256
20
-12.9111228
11
79.0002228
21
-26.2408992
0
LINE
8
0
10
83.4001466
20
-9.8201602
11
96.729923
21
-13.391863
0
LINE
8
0
10
96.729923
20
-13.391863
11
100.3016258
21
-0.0620866
0
LINE
8
0
10
100.3016258
20
-0.0620866
11
86.9718494
21
3.5096162
0
LINE
8
0
10
86.9718494
20
3.5096162
11
83.4001466
21
-9.8201602
0
LINE
8
0
10
87.8000704
20
6.6005789
11
101.1298468
21
3.0288761
0
LINE
8
0
10
101.1298468
20
3.0288761
11
104.7015496
21
16.3586525
0
LINE
8
0
10
104.7015496
20
16.3586525
11
91.3717732
21
19.9303553
0
LINE
8
0
10
91.3717732
20
19.9303553
11
87.8000704
21
6.6005789
0
LINE
8
0
10
92.1999942
20
23.021318
11
105.5297706
21
19.4496152
0
LINE
8
0
10
105.5297706
20
19.4496152
11
109.1014734
21
32.7793916
0
LINE
8
0
10
109.1014734
20
32.7793916
11
95.771697
21
36.3510944
0
LINE
8
0
10
95.771697
20
36.3510944
11
92.1999942
21
23.021318
0
LINE
8
0
10
33.7660421
20
-36.4933793
11
47.5135289
21
-37.6961285
0
LINE
8
0
10
47.5135289
20
-37.6961285
11
48.7162781
21
-23.9486417
0
LINE
8
0
10
48.7162781
20
-23.9486417
11
34.9687913
21
-22.7458925
0
LINE
8
0
10
34.9687913
20
-22.7458925
11
33.7660421
21
-36.4933793
0
LINE
8
0
10
51.821095
20
-38.4556687
11
65.1508714
21
-42.0273715
0
LINE
8
0
10
65.1508714
20
-42.0273715
11
68.7225742
21
-28.6975951
0
LINE
8
0
10
68.7225742
20
-28.6975951
11
55.3927978
21
-25.1258923
0
LINE
8
0
10
55.3927978
20
-25.1258923
11
51.821095
21
-38.4556687
0
LINE
8
0
10
69.2611031
20
-43.5233736
11
81.7681505
21
-49.3555056
0
LINE
8
0
10
81.7681505
20
-49.3555056
11
87.6002825
21
-36.8484582
0
LINE
8
0
10
87.6002825
20
-36.8484582
11
75.0932351
21
-31.0163262
0
LINE
8
0
10
75.0932351
20
-31.0163262
11
69.2611031
21
-43.5233736
0
LINE
8
0
10
83.5560853
20
-53.8374367
11
94.1274987
21
-62.7079057
0
LINE
8
0
10
94.1274987
20
-62.7079057
11
102.9979677
21
-52.1364923
0
LINE
8
0
10
102.9979677
20
-52.1364923
11
92.4265543
21
-43.2660233
0
LINE
8
0
10
92.4265543
20
-43.2660233
11
83.5560853
21
-53.8374367
0
LINE
8
0
10
94.4834747
20
-40.8146811
11
105.0548881
21
-49.6851501
0
LINE
8
0
10
105.0548881
20
-49.6851501
11
113.9253571
21
-39.1137367
0
LINE
8
0
10
113.9253571
20
-39.1137367
11
103.3539437
21
-30.2432677
0
LINE
8
0
10
103.3539437
20
-30.2432677
11
94.4834747
21
-40.8146811
0
LINE
8
0
10
94.3180774
20
-67.7846067
11
102.2334322
21
-79.0889049
0
LINE
8
0
10
102.2334322
20
-79.0889049
11
113.5377304
21
-71.1735501
0
LINE
8
0
10
113.5377304
20
-71.1735501
11
105.6223756
21
-59.8692519
0
LINE
8
0
10
105.6223756
20
-59.8692519
11
94.3180774
21
-67.7846067
0
LINE
8
0
10
108.2436622
20
-58.0338073
11
116.159017
21
-69.3381055
0
LINE
8
0
10
116.159017
20
-69.3381055
11
127.4633152
21
-61.4227507
0
LINE
8
0
10
127.4633152
20
-61.4227507
11
119.5479604
21
-50.1184525
0
LINE
8
0
10
119.5479604
20
-50.1184525
11
108.2436622
21
-58.0338073
0
ENDSEC
0
EOF