0
SECTION
2
HEADER
9
$INSUNITS
70
4
0
ENDSEC
0
SECTION
2
TABLES
0
TABLE
2
LTYPE
0
LTYPE
72
65
70
64
2
CONTINUOUS
3
______
73
0
40
0
0
ENDTAB
0
TABLE
2
LAYER
0
ENDTAB
0
ENDSEC
0
SECTION
2
ENTITIES
0
LINE
8
0
10
200.7
20
-38.8
11
226.8725
21
-38.8
0
ARC
8
0
10
226.8725
20
-40.5
40
1.7
50
0
51
90
0
LINE
8
0
10
228.5725
20
-40.5
11
228.5725
21
-51.5075
0
ARC
8
0
10
226.8725
20
-51.5075
40
1.7
50
270
51
360
0
LINE
8
0
10
226.8725
20
-53.2075
11
221.4
21
-53.2075
0
ARC
8
0
10
221.4
20
-53.5075
40
0.3
50
90
51
180
0
LINE
8
0
10
221.1
20
-97.6493298
11
221.1
21
-53.5075
0
ARC
8
0
10
221.4
20
-97.6493298
40
0.3
50
180
51
218.6484907
0
LINE
8
0
10
221.1657023
20
-97.836692
11
243.0985437
21
-125.2638484
0
ARC
8
0
10
241.7708569
20
-126.3255678
40
1.7
50
319.9999988
51
398.6484907
0
LINE
8
0
10
243.0731324
20
-127.4183067
11
221.102136
21
-153.6023206
0
ARC
8
0
10
219.7998605
20
-152.5095816
40
1.7
50
229.9999988
51
319.9999988
0
LINE
8
0
10
218.7071216
20
-153.8118571
11
204.9511421
21
-142.2692198
0
ARC
8
0
10
204.7583058
20
-142.4990331
40
0.3
50
50.0391311
51
54.9065367
0
LINE
8
0
10
204.9307794
20
-142.2535685
11
190.448414
21
-132.0776608
0
ARC
8
0
10
190.2759404
20
-132.3231253
40
0.3
50
54.9456892
51
71.0557493
0
LINE
8
0
10
190.3733348
20
-132.0393748
11
175.8763795
21
-127.063445
0
LINE
8
0
10
175.8763795
20
-127.063445
11
175.6595494
21
-127.0330372
0
LINE
8
0
10
175.6595494
20
-127.0330372
11
158.1956618
21
-127.0330372
0
ARC
8
0
10
158.1956618
20
-127.3330372
40
0.3
50
90
51
99.9749207
0
LINE
8
0
10
158.1436967
20
-127.0375721
11
132.3625385
21
-131.5718516
0
ARC
8
0
10
132.0680695
20
-129.8975493
40
1.7
50
212.2808491
51
279.9749207
0
LINE
8
0
10
130.6308208
20
-130.8054679
11
117.7025226
21
-110.339779
0
ARC
8
0
10
117.4488905
20
-110.5
40
0.3
50
32.2808491
51
90
0
LINE
8
0
10
91
20
-110.2
11
117.4488905
21
-110.2
0
ARC
8
0
10
91
20
-108.5
40
1.7
50
180
51
270
0
LINE
8
0
10
89.3
20
-108.5
11
89.3
21
-40.5
0
ARC
8
0
10
91
20
-40.5
40
1.7
50
90
51
180
0
LINE
8
0
10
91
20
-38.8
11
125.3
21
-38.8
0
LINE
8
0
10
125.3
20
-38.8
11
125.3
21
-36.5
0
ARC
8
0
10
127
20
-36.5
40
1.7
50
90
51
180
0
LINE
8
0
10
143.3
20
-34.8
11
127
21
-34.8
0
LINE
8
0
10
143.3
20
-34.8
11
143.3
21
-34.5
0
ARC
8
0
10
145
20
-34.5
40
1.7
50
90
51
180
0
LINE
8
0
10
163
20
-32.8
11
145
21
-32.8
0
ARC
8
0
10
163
20
-34.5
40
1.7
50
0
51
90
0
LINE
8
0
10
164.7
20
-34.8
11
164.7
21
-34.5
0
LINE
8
0
10
181
20
-34.8
11
164.7
21
-34.8
0
ARC
8
0
10
181
20
-36.5
40
1.7
50
0
51
90
0
LINE
8
0
10
182.7
20
-36.8
11
182.7
21
-36.5
0
LINE
8
0
10
199
20
-36.8
11
182.7
21
-36.8
0
ARC
8
0
10
199
20
-38.5
40
1.7
50
0
51
90
0
LINE
8
0
10
200.7
20
-38.8
11
200.7
21
-38.5
0
CIRCLE
8
0
10
109
20
-41.35
40
1.1
0
CIRCLE
8
0
10
121.6
20
-111
40
1.1
0
CIRCLE
8
0
10
200.26
20
-41.39
40
1.1
0
CIRCLE
8
0
10
226.5964194
20
-109.0587454
40
1.1
0
CIRCLE
8
0
10
181
20
-88.5
40
2.75
0
LINE
8
0
10
205.575
20
-91.85
11
211.575
21
-91.85
0
LINE
8
0
10
211.575
20
-91.85
11
211.575
21
-88.05
0
LINE
8
0
10
211.575
20
-88.05
11
205.575
21
-88.05
0
LINE
8
0
10
205.575
20
-88.05
11
205.575
21
-91.85
0
ENDSEC
0
EOF