0
SECTION
2
HEADER
9
$INSUNITS
70
4
0
ENDSEC
0
SECTION
2
TABLES
0
TABLE
2
LTYPE
0
LTYPE
72
65
70
64
2
CONTINUOUS
3
______
73
0
40
0
0
ENDTAB
0
TABLE
2
LAYER
0
ENDTAB
0
ENDSEC
0
SECTION
2
ENTITIES
0
LINE
8
0
10
202.2863353
20
-36.8
11
226.8725
21
-36.8
0
ARC
8
0
10
226.8725
20
-40.5
40
3.7
50
0
51
90
0
LINE
8
0
10
230.5725
20
-40.5
11
230.5725
21
-51.5075
0
ARC
8
0
10
226.8725
20
-51.5075
40
3.7
50
270
51
360
0
LINE
8
0
10
226.8725
20
-55.2075
11
223.1
21
-55.2075
0
LINE
8
0
10
223.1
20
-97.0531907
11
223.1
21
-55.2075
0
LINE
8
0
10
223.1
20
-97.0531907
11
244.660528
21
-124.0147668
0
ARC
8
0
10
241.7708569
20
-126.3255678
40
3.7
50
319.9999988
51
398.6484907
0
LINE
8
0
10
244.6052213
20
-128.703882
11
222.6342248
21
-154.8878958
0
ARC
8
0
10
219.7998605
20
-152.5095816
40
3.7
50
229.9999988
51
319.9999988
0
LINE
8
0
10
217.4215464
20
-155.343946
11
203.7213611
21
-143.8481256
0
LINE
8
0
10
203.7213611
20
-143.8481256
11
189.495925
21
-133.8527469
0
LINE
8
0
10
189.495925
20
-133.8527469
11
175.4541037
21
-129.0330372
0
LINE
8
0
10
175.4541037
20
-129.0330372
11
158.3440175
21
-129.0330372
0
LINE
8
0
10
158.3440175
20
-129.0330372
11
132.7089727
21
-133.5416189
0
ARC
8
0
10
132.0680695
20
-129.8975493
40
3.7
50
212.2808491
51
279.9749207
0
LINE
8
0
10
128.93994
20
-131.8736075
11
116.5120043
21
-112.2
0
LINE
8
0
10
91
20
-112.2
11
116.5120043
21
-112.2
0
ARC
8
0
10
91
20
-108.5
40
3.7
50
180
51
270
0
LINE
8
0
10
87.3
20
-108.5
11
87.3
21
-40.5
0
ARC
8
0
10
91
20
-40.5
40
3.7
50
90
51
180
0
LINE
8
0
10
91
20
-36.8
11
123.3
21
-36.8
0
LINE
8
0
10
123.3
20
-36.8
11
123.3
21
-36.5
0
ARC
8
0
10
127
20
-36.5
40
3.7
50
90
51
180
0
LINE
8
0
10
141.7136647
20
-32.8
11
127
21
-32.8
0
ARC
8
0
10
145
20
-34.5
40
3.7
50
90
51
152.6477668
0
LINE
8
0
10
163
20
-30.8
11
145
21
-30.8
0
ARC
8
0
10
163
20
-34.5
40
3.7
50
27.3522332
51
90
0
LINE
8
0
10
181
20
-32.8
11
166.2863353
21
-32.8
0
ARC
8
0
10
181
20
-36.5
40
3.7
50
27.3522332
51
90
0
LINE
8
0
10
199
20
-34.8
11
184.2863353
21
-34.8
0
ARC
8
0
10
199
20
-38.5
40
3.7
50
27.3522332
51
90
0
CIRCLE
8
0
10
109
20
-41.35
40
1.1
0
CIRCLE
8
0
10
121.6
20
-111
40
1.1
0
CIRCLE
8
0
10
200.26
20
-41.39
40
1.1
0
CIRCLE
8
0
10
226.5964194
20
-109.0587454
40
1.1
0
CIRCLE
8
0
10
181
20
-88.5
40
2.75
0
LINE
8
0
10
205.575
20
-91.85
11
211.575
21
-91.85
0
LINE
8
0
10
211.575
20
-91.85
11
211.575
21
-88.05
0
LINE
8
0
10
211.575
20
-88.05
11
205.575
21
-88.05
0
LINE
8
0
10
205.575
20
-88.05
11
205.575
21
-91.85
0
ENDSEC
0
EOF