0
SECTION
2
HEADER
9
$INSUNITS
70
4
0
ENDSEC
0
SECTION
2
TABLES
0
TABLE
2
LTYPE
0
LTYPE
72
65
70
64
2
CONTINUOUS
3
______
73
0
40
0
0
ENDTAB
0
TABLE
2
LAYER
0
ENDTAB
0
ENDSEC
0
SECTION
2
ENTITIES
0
LINE
8
0
10
91
20
-109.5
11
127
21
-109.5
0
LINE
8
0
10
90
20
-108.5
11
90
21
-40.5
0
LINE
8
0
10
91
20
-39.5
11
126
21
-39.5
0
ARC
8
0
10
91
20
-40.5
40
1
50
90
51
180
0
ARC
8
0
10
91
20
-108.5
40
1
50
180
51
270
0
LINE
8
0
10
128
20
-108.5
11
128
21
-105.5
0
ARC
8
0
10
127
20
-108.5
40
1
50
270
51
0
0
LINE
8
0
10
128
20
-105.5
11
145
21
-105.5
0
LINE
8
0
10
146
20
-104.5
11
146
21
-103.5
0
LINE
8
0
10
126
20
-39.5
11
126
21
-36.5
0
LINE
8
0
10
144
20
-35.5
11
127
21
-35.5
0
ARC
8
0
10
145
20
-104.5
40
1
50
270
51
0
0
ARC
8
0
10
127
20
-36.5
40
1
50
90
51
180
0
LINE
8
0
10
146
20
-103.5
11
162
21
-103.5
0
LINE
8
0
10
164
20
-35.5
11
164
21
-34.5
0
LINE
8
0
10
144
20
-35.5
11
144
21
-34.5
0
LINE
8
0
10
163
20
-33.5
11
145
21
-33.5
0
ARC
8
0
10
163
20
-34.5
40
1
50
0
51
90
0
ARC
8
0
10
145
20
-34.5
40
1
50
90
51
180
0
LINE
8
0
10
163
20
-105.5
11
180
21
-105.5
0
LINE
8
0
10
182
20
-37.5
11
182
21
-36.5
0
LINE
8
0
10
162
20
-104.5
11
162
21
-103.5
0
LINE
8
0
10
181
20
-35.5
11
164
21
-35.5
0
ARC
8
0
10
181
20
-36.5
40
1
50
0
51
90
0
ARC
8
0
10
163
20
-104.5
40
1
50
180
51
270
0
LINE
8
0
10
181
20
-107.5
11
199
21
-107.5
0
LINE
8
0
10
200
20
-106.5
11
200
21
-38.5
0
LINE
8
0
10
180
20
-106.5
11
180
21
-105.5
0
LINE
8
0
10
199
20
-37.5
11
182
21
-37.5
0
ARC
8
0
10
199
20
-106.5
40
1
50
270
51
0
0
ARC
8
0
10
199
20
-38.5
40
1
50
0
51
90
0
ARC
8
0
10
181
20
-106.5
40
1
50
180
51
270
0
ENDSEC
0
EOF