0
SECTION
2
HEADER
9
$INSUNITS
70
4
0
ENDSEC
0
SECTION
2
TABLES
0
TABLE
2
LTYPE
0
LTYPE
72
65
70
64
2
CONTINUOUS
3
______
73
0
40
0
0
ENDTAB
0
TABLE
2
LAYER
0
ENDTAB
0
ENDSEC
0
SECTION
2
ENTITIES
0
LINE
8
0
10
200
20
-39.5
11
226.8725
21
-39.5
0
LINE
8
0
10
227.8725
20
-40.5
11
227.8725
21
-51.5075
0
LINE
8
0
10
226.8725
20
-52.5075
11
221.4
21
-52.5075
0
LINE
8
0
10
220.4
20
-97.6493298
11
220.4
21
-53.5075
0
LINE
8
0
10
220.6190078
20
-98.2738706
11
242.5518491
21
-125.701027
0
LINE
8
0
10
242.5369013
20
-126.9683554
11
220.5659049
21
-153.1523692
0
LINE
8
0
10
219.1570729
20
-153.275626
11
205.4010934
21
-141.7329887
0
LINE
8
0
10
205.3332177
20
-141.6808178
11
190.8508523
21
-131.50491
0
LINE
8
0
10
190.6005884
20
-131.3772904
11
176.0401078
21
-126.3795562
0
LINE
8
0
10
176.0401078
20
-126.3795562
11
175.7083935
21
-126.3330372
0
LINE
8
0
10
175.7083935
20
-126.3330372
11
158.1956618
21
-126.3330372
0
LINE
8
0
10
158.0224447
20
-126.3481535
11
132.2412866
21
-130.882433
0
LINE
8
0
10
131.2226291
20
-130.4316191
11
118.2943309
21
-109.9659302
0
LINE
8
0
10
91
20
-109.5
11
117.4488905
21
-109.5
0
ARC
8
0
10
226.8725
20
-40.5
40
1
50
0
51
90
0
ARC
8
0
10
226.8725
20
-51.5075
40
1
50
270
51
0
0
ARC
8
0
10
221.4
20
-53.5075
40
1
50
90
51
180
0
ARC
8
0
10
221.4
20
-97.6493298
40
1
50
180
51
218.6484907
0
ARC
8
0
10
241.7708569
20
-126.3255678
40
1
50
319.9999988
51
38.6484907
0
ARC
8
0
10
219.7998605
20
-152.5095816
40
1
50
229.9999988
51
319.9999988
0
ARC
8
0
10
204.7583058
20
-142.4990331
40
1
50
49.9999988
51
54.9065367
0
ARC
8
0
10
190.2759404
20
-132.3231253
40
1
50
54.9065367
51
71.0557493
0
ARC
8
0
10
158.1956618
20
-127.3330372
40
1
50
90
51
99.9749207
0
ARC
8
0
10
132.0680695
20
-129.8975493
40
1
50
212.2808491
51
279.9749207
0
ARC
8
0
10
117.4488905
20
-110.5
40
1
50
32.2808491
51
90
0
LINE
8
0
10
90
20
-108.5
11
90
21
-40.5
0
LINE
8
0
10
91
20
-39.5
11
126
21
-39.5
0
ARC
8
0
10
91
20
-40.5
40
1
50
90
51
180
0
ARC
8
0
10
91
20
-108.5
40
1
50
180
51
270
0
LINE
8
0
10
126
20
-39.5
11
126
21
-36.5
0
LINE
8
0
10
144
20
-35.5
11
127
21
-35.5
0
ARC
8
0
10
127
20
-36.5
40
1
50
90
51
180
0
LINE
8
0
10
164
20
-35.5
11
164
21
-34.5
0
LINE
8
0
10
144
20
-35.5
11
144
21
-34.5
0
LINE
8
0
10
163
20
-33.5
11
145
21
-33.5
0
ARC
8
0
10
163
20
-34.5
40
1
50
0
51
90
0
ARC
8
0
10
145
20
-34.5
40
1
50
90
51
180
0
LINE
8
0
10
182
20
-37.5
11
182
21
-36.5
0
LINE
8
0
10
181
20
-35.5
11
164
21
-35.5
0
ARC
8
0
10
181
20
-36.5
40
1
50
0
51
90
0
LINE
8
0
10
200
20
-39.5
11
200
21
-38.5
0
LINE
8
0
10
199
20
-37.5
11
182
21
-37.5
0
ARC
8
0
10
199
20
-38.5
40
1
50
0
51
90
0
CIRCLE
8
0
10
109
20
-41.35
40
1.1
0
CIRCLE
8
0
10
121.6
20
-111
40
1.1
0
CIRCLE
8
0
10
200.26
20
-41.39
40
1.1
0
CIRCLE
8
0
10
226.5964194
20
-109.0587454
40
1.1
0
ENDSEC
0
EOF