0
SECTION
2
HEADER
9
$INSUNITS
70
4
0
ENDSEC
0
SECTION
2
TABLES
0
TABLE
2
LTYPE
0
LTYPE
72
65
70
64
2
CONTINUOUS
3
______
73
0
40
0
0
ENDTAB
0
TABLE
2
LAYER
0
ENDTAB
0
ENDSEC
0
SECTION
2
ENTITIES
0
LINE
8
0
10
200
20
-39.5
11
219.4
21
-39.5
0
LINE
8
0
10
220.4
20
-97.6493298
11
220.4
21
-40.5
0
LINE
8
0
10
220.6190078
20
-98.2738706
11
242.5518491
21
-125.701027
0
LINE
8
0
10
242.5369013
20
-126.9683554
11
220.5659049
21
-153.1523692
0
LINE
8
0
10
219.1570729
20
-153.275626
11
205.4010934
21
-141.7329887
0
LINE
8
0
10
205.3332177
20
-141.6808178
11
190.8508523
21
-131.50491
0
LINE
8
0
10
190.6005884
20
-131.3772904
11
176.0401078
21
-126.3795562
0
LINE
8
0
10
176.0401078
20
-126.3795562
11
175.7083935
21
-126.3330372
0
LINE
8
0
10
175.7083935
20
-126.3330372
11
158.1956618
21
-126.3330372
0
LINE
8
0
10
158.0224447
20
-126.3481535
11
132.2412866
21
-130.882433
0
LINE
8
0
10
131.2226291
20
-130.4316191
11
118.2943309
21
-109.9659302
0
LINE
8
0
10
91
20
-109.5
11
117.4488905
21
-109.5
0
ARC
8
0
10
219.4
20
-40.5
40
1
50
0
51
90
0
ARC
8
0
10
221.4
20
-97.6493298
40
1
50
180
51
218.6484907
0
ARC
8
0
10
241.7708569
20
-126.3255678
40
1
50
319.9999988
51
38.6484907
0
ARC
8
0
10
219.7998605
20
-152.5095816
40
1
50
229.9999988
51
319.9999988
0
ARC
8
0
10
204.7583058
20
-142.4990331
40
1
50
49.9999988
51
54.9065367
0
ARC
8
0
10
190.2759404
20
-132.3231253
40
1
50
54.9065367
51
71.0557493
0
ARC
8
0
10
158.1956618
20
-127.3330372
40
1
50
90
51
99.9749207
0
ARC
8
0
10
132.0680695
20
-129.8975493
40
1
50
212.2808491
51
279.9749207
0
ARC
8
0
10
117.4488905
20
-110.5
40
1
50
32.2808491
51
90
0
LINE
8
0
10
90
20
-108.5
11
90
21
-40.5
0
LINE
8
0
10
91
20
-39.5
11
126
21
-39.5
0
ARC
8
0
10
91
20
-40.5
40
1
50
90
51
180
0
ARC
8
0
10
91
20
-108.5
40
1
50
180
51
270
0
LINE
8
0
10
126
20
-39.5
11
126
21
-36.5
0
LINE
8
0
10
144
20
-35.5
11
127
21
-35.5
0
ARC
8
0
10
127
20
-36.5
40
1
50
90
51
180
0
LINE
8
0
10
164
20
-35.5
11
164
21
-34.5
0
LINE
8
0
10
144
20
-35.5
11
144
21
-34.5
0
LINE
8
0
10
163
20
-33.5
11
145
21
-33.5
0
ARC
8
0
10
163
20
-34.5
40
1
50
0
51
90
0
ARC
8
0
10
145
20
-34.5
40
1
50
90
51
180
0
LINE
8
0
10
182
20
-37.5
11
182
21
-36.5
0
LINE
8
0
10
181
20
-35.5
11
164
21
-35.5
0
ARC
8
0
10
181
20
-36.5
40
1
50
0
51
90
0
LINE
8
0
10
200
20
-39.5
11
200
21
-38.5
0
LINE
8
0
10
199
20
-37.5
11
182
21
-37.5
0
ARC
8
0
10
199
20
-38.5
40
1
50
0
51
90
0
LINE
8
0
10
91.25
20
-108.25
11
108.75
21
-108.25
0
LINE
8
0
10
108.75
20
-108.25
11
108.75
21
-91.75
0
LINE
8
0
10
108.75
20
-91.75
11
91.25
21
-91.75
0
LINE
8
0
10
91.25
20
-91.75
11
91.25
21
-108.25
0
LINE
8
0
10
91.25
20
-91.25
11
108.75
21
-91.25
0
LINE
8
0
10
108.75
20
-91.25
11
108.75
21
-74.75
0
LINE
8
0
10
108.75
20
-74.75
11
91.25
21
-74.75
0
LINE
8
0
10
91.25
20
-74.75
11
91.25
21
-91.25
0
LINE
8
0
10
91.25
20
-74.25
11
108.75
21
-74.25
0
LINE
8
0
10
108.75
20
-74.25
11
108.75
21
-57.75
0
LINE
8
0
10
108.75
20
-57.75
11
91.25
21
-57.75
0
LINE
8
0
10
91.25
20
-57.75
11
91.25
21
-74.25
0
LINE
8
0
10
91.25
20
-57.25
11
108.75
21
-57.25
0
LINE
8
0
10
108.75
20
-57.25
11
108.75
21
-40.75
0
LINE
8
0
10
108.75
20
-40.75
11
91.25
21
-40.75
0
LINE
8
0
10
91.25
20
-40.75
11
91.25
21
-57.25
0
LINE
8
0
10
109.25
20
-108.25
11
126.75
21
-108.25
0
LINE
8
0
10
126.75
20
-108.25
11
126.75
21
-91.75
0
LINE
8
0
10
126.75
20
-91.75
11
109.25
21
-91.75
0
LINE
8
0
10
109.25
20
-91.75
11
109.25
21
-108.25
0
LINE
8
0
10
109.25
20
-91.25
11
126.75
21
-91.25
0
LINE
8
0
10
126.75
20
-91.25
11
126.75
21
-74.75
0
LINE
8
0
10
126.75
20
-74.75
11
109.25
21
-74.75
0
LINE
8
0
10
109.25
20
-74.75
11
109.25
21
-91.25
0
LINE
8
0
10
109.25
20
-74.25
11
126.75
21
-74.25
0
LINE
8
0
10
126.75
20
-74.25
11
126.75
21
-57.75
0
LINE
8
0
10
126.75
20
-57.75
11
109.25
21
-57.75
0
LINE
8
0
10
109.25
20
-57.75
11
109.25
21
-74.25
0
LINE
8
0
10
109.25
20
-57.25
11
126.75
21
-57.25
0
LINE
8
0
10
126.75
20
-57.25
11
126.75
21
-40.75
0
LINE
8
0
10
126.75
20
-40.75
11
109.25
21
-40.75
0
LINE
8
0
10
109.25
20
-40.75
11
109.25
21
-57.25
0
LINE
8
0
10
127.25
20
-104.25
11
144.75
21
-104.25
0
LINE
8
0
10
144.75
20
-104.25
11
144.75
21
-87.75
0
LINE
8
0
10
144.75
20
-87.75
11
127.25
21
-87.75
0
LINE
8
0
10
127.25
20
-87.75
11
127.25
21
-104.25
0
LINE
8
0
10
127.25
20
-87.25
11
144.75
21
-87.25
0
LINE
8
0
10
144.75
20
-87.25
11
144.75
21
-70.75
0
LINE
8
0
10
144.75
20
-70.75
11
127.25
21
-70.75
0
LINE
8
0
10
127.25
20
-70.75
11
127.25
21
-87.25
0
LINE
8
0
10
127.25
20
-70.25
11
144.75
21
-70.25
0
LINE
8
0
10
144.75
20
-70.25
11
144.75
21
-53.75
0
LINE
8
0
10
144.75
20
-53.75
11
127.25
21
-53.75
0
LINE
8
0
10
127.25
20
-53.75
11
127.25
21
-70.25
0
LINE
8
0
10
127.25
20
-53.25
11
144.75
21
-53.25
0
LINE
8
0
10
144.75
20
-53.25
11
144.75
21
-36.75
0
LINE
8
0
10
144.75
20
-36.75
11
127.25
21
-36.75
0
LINE
8
0
10
127.25
20
-36.75
11
127.25
21
-53.25
0
LINE
8
0
10
145.25
20
-102.25
11
162.75
21
-102.25
0
LINE
8
0
10
162.75
20
-102.25
11
162.75
21
-85.75
0
LINE
8
0
10
162.75
20
-85.75
11
145.25
21
-85.75
0
LINE
8
0
10
145.25
20
-85.75
11
145.25
21
-102.25
0
LINE
8
0
10
145.25
20
-85.25
11
162.75
21
-85.25
0
LINE
8
0
10
162.75
20
-85.25
11
162.75
21
-68.75
0
LINE
8
0
10
162.75
20
-68.75
11
145.25
21
-68.75
0
LINE
8
0
10
145.25
20
-68.75
11
145.25
21
-85.25
0
LINE
8
0
10
145.25
20
-68.25
11
162.75
21
-68.25
0
LINE
8
0
10
162.75
20
-68.25
11
162.75
21
-51.75
0
LINE
8
0
10
162.75
20
-51.75
11
145.25
21
-51.75
0
LINE
8
0
10
145.25
20
-51.75
11
145.25
21
-68.25
0
LINE
8
0
10
145.25
20
-51.25
11
162.75
21
-51.25
0
LINE
8
0
10
162.75
20
-51.25
11
162.75
21
-34.75
0
LINE
8
0
10
162.75
20
-34.75
11
145.25
21
-34.75
0
LINE
8
0
10
145.25
20
-34.75
11
145.25
21
-51.25
0
LINE
8
0
10
163.25
20
-104.25
11
180.75
21
-104.25
0
LINE
8
0
10
180.75
20
-104.25
11
180.75
21
-87.75
0
LINE
8
0
10
180.75
20
-87.75
11
163.25
21
-87.75
0
LINE
8
0
10
163.25
20
-87.75
11
163.25
21
-104.25
0
LINE
8
0
10
163.25
20
-87.25
11
180.75
21
-87.25
0
LINE
8
0
10
180.75
20
-87.25
11
180.75
21
-70.75
0
LINE
8
0
10
180.75
20
-70.75
11
163.25
21
-70.75
0
LINE
8
0
10
163.25
20
-70.75
11
163.25
21
-87.25
0
LINE
8
0
10
163.25
20
-70.25
11
180.75
21
-70.25
0
LINE
8
0
10
180.75
20
-70.25
11
180.75
21
-53.75
0
LINE
8
0
10
180.75
20
-53.75
11
163.25
21
-53.75
0
LINE
8
0
10
163.25
20
-53.75
11
163.25
21
-70.25
0
LINE
8
0
10
163.25
20
-53.25
11
180.75
21
-53.25
0
LINE
8
0
10
180.75
20
-53.25
11
180.75
21
-36.75
0
LINE
8
0
10
180.75
20
-36.75
11
163.25
21
-36.75
0
LINE
8
0
10
163.25
20
-36.75
11
163.25
21
-53.25
0
LINE
8
0
10
181.25
20
-106.25
11
198.75
21
-106.25
0
LINE
8
0
10
198.75
20
-106.25
11
198.75
21
-89.75
0
LINE
8
0
10
198.75
20
-89.75
11
181.25
21
-89.75
0
LINE
8
0
10
181.25
20
-89.75
11
181.25
21
-106.25
0
LINE
8
0
10
181.25
20
-89.25
11
198.75
21
-89.25
0
LINE
8
0
10
198.75
20
-89.25
11
198.75
21
-72.75
0
LINE
8
0
10
198.75
20
-72.75
11
181.25
21
-72.75
0
LINE
8
0
10
181.25
20
-72.75
11
181.25
21
-89.25
0
LINE
8
0
10
181.25
20
-72.25
11
198.75
21
-72.25
0
LINE
8
0
10
198.75
20
-72.25
11
198.75
21
-55.75
0
LINE
8
0
10
198.75
20
-55.75
11
181.25
21
-55.75
0
LINE
8
0
10
181.25
20
-55.75
11
181.25
21
-72.25
0
LINE
8
0
10
181.25
20
-55.25
11
198.75
21
-55.25
0
LINE
8
0
10
198.75
20
-55.25
11
198.75
21
-38.75
0
LINE
8
0
10
198.75
20
-38.75
11
181.25
21
-38.75
0
LINE
8
0
10
181.25
20
-38.75
11
181.25
21
-55.25
0
LINE
8
0
10
140.4732044
20
-128.1613424
11
157.7073401
21
-125.1224993
0
LINE
8
0
10
157.7073401
20
-125.1224993
11
154.8421452
21
-108.8731714
0
LINE
8
0
10
154.8421452
20
-108.8731714
11
137.6080095
21
-111.9120145
0
LINE
8
0
10
137.6080095
20
-111.9120145
11
140.4732044
21
-128.1613424
0
LINE
8
0
10
158.1583935
20
-125.0830372
11
175.6583935
21
-125.0830372
0
LINE
8
0
10
175.6583935
20
-125.0830372
11
175.6583935
21
-108.5830372
0
LINE
8
0
10
175.6583935
20
-108.5830372
11
158.1583935
21
-108.5830372
0
LINE
8
0
10
158.1583935
20
-108.5830372
11
158.1583935
21
-125.0830372
0
LINE
8
0
10
176.1094469
20
-125.1224993
11
193.3435826
21
-128.1613424
0
LINE
8
0
10
193.3435826
20
-128.1613424
11
196.2087775
21
-111.9120145
0
LINE
8
0
10
196.2087775
20
-111.9120145
11
178.9746418
21
-108.8731714
0
LINE
8
0
10
178.9746418
20
-108.8731714
11
176.1094469
21
-125.1224993
0
LINE
8
0
10
192.3959306
20
-130.818736
11
208.2563169
21
-138.2145555
0
LINE
8
0
10
208.2563169
20
-138.2145555
11
215.2295182
21
-123.260477
0
LINE
8
0
10
215.2295182
20
-123.260477
11
199.3691319
21
-115.8646575
0
LINE
8
0
10
199.3691319
20
-115.8646575
11
192.3959306
21
-130.818736
0
LINE
8
0
10
199.580441
20
-115.4115036
11
215.4408273
21
-122.8073231
0
LINE
8
0
10
215.4408273
20
-122.8073231
11
222.4140286
21
-107.8532446
0
LINE
8
0
10
222.4140286
20
-107.8532446
11
206.5536423
21
-100.4574251
0
LINE
8
0
10
206.5536423
20
-100.4574251
11
199.580441
21
-115.4115036
0
LINE
8
0
10
206.3632685
20
-140.9085904
11
219.7690463
21
-152.1573735
0
LINE
8
0
10
219.7690463
20
-152.1573735
11
230.3750419
21
-139.5176402
0
LINE
8
0
10
230.3750419
20
-139.5176402
11
216.9692641
21
-128.2688571
0
LINE
8
0
10
216.9692641
20
-128.2688571
11
206.3632685
21
-140.9085904
0
LINE
8
0
10
217.2906579
20
-127.8858349
11
230.6964357
21
-139.134618
0
LINE
8
0
10
230.6964357
20
-139.134618
11
241.3024313
21
-126.4948847
0
LINE
8
0
10
241.3024313
20
-126.4948847
11
227.8966535
21
-115.2461016
0
LINE
8
0
10
227.8966535
20
-115.2461016
11
217.2906579
21
-127.8858349
0
LINE
8
0
10
202.3
20
-73.75
11
220.3
21
-73.75
0
LINE
8
0
10
220.3
20
-73.75
11
220.3
21
-40.75
0
LINE
8
0
10
220.3
20
-40.75
11
202.3
21
-40.75
0
LINE
8
0
10
202.3
20
-40.75
11
202.3
21
-73.75
0
ENDSEC
0
EOF