0
SECTION
2
HEADER
9
$INSUNITS
70
4
0
ENDSEC
0
SECTION
2
TABLES
0
TABLE
2
LTYPE
0
LTYPE
72
65
70
64
2
CONTINUOUS
3
______
73
0
40
0
0
ENDTAB
0
TABLE
2
LAYER
0
ENDTAB
0
ENDSEC
0
SECTION
2
ENTITIES
0
LINE
8
0
10
93.1
20
-106.9
11
106.9
21
-106.9
0
LINE
8
0
10
106.9
20
-106.9
11
106.9
21
-93.1
0
LINE
8
0
10
106.9
20
-93.1
11
93.1
21
-93.1
0
LINE
8
0
10
93.1
20
-93.1
11
93.1
21
-106.9
0
LINE
8
0
10
93.1
20
-89.9
11
106.9
21
-89.9
0
LINE
8
0
10
106.9
20
-89.9
11
106.9
21
-76.1
0
LINE
8
0
10
106.9
20
-76.1
11
93.1
21
-76.1
0
LINE
8
0
10
93.1
20
-76.1
11
93.1
21
-89.9
0
LINE
8
0
10
93.1
20
-72.9
11
106.9
21
-72.9
0
LINE
8
0
10
106.9
20
-72.9
11
106.9
21
-59.1
0
LINE
8
0
10
106.9
20
-59.1
11
93.1
21
-59.1
0
LINE
8
0
10
93.1
20
-59.1
11
93.1
21
-72.9
0
LINE
8
0
10
93.1
20
-55.9
11
106.9
21
-55.9
0
LINE
8
0
10
106.9
20
-55.9
11
106.9
21
-42.1
0
LINE
8
0
10
106.9
20
-42.1
11
93.1
21
-42.1
0
LINE
8
0
10
93.1
20
-42.1
11
93.1
21
-55.9
0
LINE
8
0
10
111.1
20
-106.9
11
124.9
21
-106.9
0
LINE
8
0
10
124.9
20
-106.9
11
124.9
21
-93.1
0
LINE
8
0
10
124.9
20
-93.1
11
111.1
21
-93.1
0
LINE
8
0
10
111.1
20
-93.1
11
111.1
21
-106.9
0
LINE
8
0
10
111.1
20
-89.9
11
124.9
21
-89.9
0
LINE
8
0
10
124.9
20
-89.9
11
124.9
21
-76.1
0
LINE
8
0
10
124.9
20
-76.1
11
111.1
21
-76.1
0
LINE
8
0
10
111.1
20
-76.1
11
111.1
21
-89.9
0
LINE
8
0
10
111.1
20
-72.9
11
124.9
21
-72.9
0
LINE
8
0
10
124.9
20
-72.9
11
124.9
21
-59.1
0
LINE
8
0
10
124.9
20
-59.1
11
111.1
21
-59.1
0
LINE
8
0
10
111.1
20
-59.1
11
111.1
21
-72.9
0
LINE
8
0
10
111.1
20
-55.9
11
124.9
21
-55.9
0
LINE
8
0
10
124.9
20
-55.9
11
124.9
21
-42.1
0
LINE
8
0
10
124.9
20
-42.1
11
111.1
21
-42.1
0
LINE
8
0
10
111.1
20
-42.1
11
111.1
21
-55.9
0
LINE
8
0
10
129.1
20
-102.9
11
142.9
21
-102.9
0
LINE
8
0
10
142.9
20
-102.9
11
142.9
21
-89.1
0
LINE
8
0
10
142.9
20
-89.1
11
129.1
21
-89.1
0
LINE
8
0
10
129.1
20
-89.1
11
129.1
21
-102.9
0
LINE
8
0
10
129.1
20
-85.9
11
142.9
21
-85.9
0
LINE
8
0
10
142.9
20
-85.9
11
142.9
21
-72.1
0
LINE
8
0
10
142.9
20
-72.1
11
129.1
21
-72.1
0
LINE
8
0
10
129.1
20
-72.1
11
129.1
21
-85.9
0
LINE
8
0
10
129.1
20
-68.9
11
142.9
21
-68.9
0
LINE
8
0
10
142.9
20
-68.9
11
142.9
21
-55.1
0
LINE
8
0
10
142.9
20
-55.1
11
129.1
21
-55.1
0
LINE
8
0
10
129.1
20
-55.1
11
129.1
21
-68.9
0
LINE
8
0
10
129.1
20
-51.9
11
142.9
21
-51.9
0
LINE
8
0
10
142.9
20
-51.9
11
142.9
21
-38.1
0
LINE
8
0
10
142.9
20
-38.1
11
129.1
21
-38.1
0
LINE
8
0
10
129.1
20
-38.1
11
129.1
21
-51.9
0
LINE
8
0
10
147.1
20
-100.9
11
160.9
21
-100.9
0
LINE
8
0
10
160.9
20
-100.9
11
160.9
21
-87.1
0
LINE
8
0
10
160.9
20
-87.1
11
147.1
21
-87.1
0
LINE
8
0
10
147.1
20
-87.1
11
147.1
21
-100.9
0
LINE
8
0
10
147.1
20
-83.9
11
160.9
21
-83.9
0
LINE
8
0
10
160.9
20
-83.9
11
160.9
21
-70.1
0
LINE
8
0
10
160.9
20
-70.1
11
147.1
21
-70.1
0
LINE
8
0
10
147.1
20
-70.1
11
147.1
21
-83.9
0
LINE
8
0
10
147.1
20
-66.9
11
160.9
21
-66.9
0
LINE
8
0
10
160.9
20
-66.9
11
160.9
21
-53.1
0
LINE
8
0
10
160.9
20
-53.1
11
147.1
21
-53.1
0
LINE
8
0
10
147.1
20
-53.1
11
147.1
21
-66.9
0
LINE
8
0
10
147.1
20
-49.9
11
160.9
21
-49.9
0
LINE
8
0
10
160.9
20
-49.9
11
160.9
21
-36.1
0
LINE
8
0
10
160.9
20
-36.1
11
147.1
21
-36.1
0
LINE
8
0
10
147.1
20
-36.1
11
147.1
21
-49.9
0
LINE
8
0
10
165.1
20
-102.9
11
178.9
21
-102.9
0
LINE
8
0
10
178.9
20
-102.9
11
178.9
21
-89.1
0
LINE
8
0
10
178.9
20
-89.1
11
165.1
21
-89.1
0
LINE
8
0
10
165.1
20
-89.1
11
165.1
21
-102.9
0
LINE
8
0
10
165.1
20
-85.9
11
178.9
21
-85.9
0
LINE
8
0
10
178.9
20
-85.9
11
178.9
21
-72.1
0
LINE
8
0
10
178.9
20
-72.1
11
165.1
21
-72.1
0
LINE
8
0
10
165.1
20
-72.1
11
165.1
21
-85.9
0
LINE
8
0
10
165.1
20
-68.9
11
178.9
21
-68.9
0
LINE
8
0
10
178.9
20
-68.9
11
178.9
21
-55.1
0
LINE
8
0
10
178.9
20
-55.1
11
165.1
21
-55.1
0
LINE
8
0
10
165.1
20
-55.1
11
165.1
21
-68.9
0
LINE
8
0
10
165.1
20
-51.9
11
178.9
21
-51.9
0
LINE
8
0
10
178.9
20
-51.9
11
178.9
21
-38.1
0
LINE
8
0
10
178.9
20
-38.1
11
165.1
21
-38.1
0
LINE
8
0
10
165.1
20
-38.1
11
165.1
21
-51.9
0
LINE
8
0
10
183.1
20
-104.9
11
196.9
21
-104.9
0
LINE
8
0
10
196.9
20
-104.9
11
196.9
21
-91.1
0
LINE
8
0
10
196.9
20
-91.1
11
183.1
21
-91.1
0
LINE
8
0
10
183.1
20
-91.1
11
183.1
21
-104.9
0
LINE
8
0
10
196.9
20
-74.1
11
183.1
21
-74.1
0
LINE
8
0
10
183.1
20
-74.1
11
183.1
21
-87.9
0
LINE
8
0
10
183.1
20
-87.9
11
196.9
21
-87.9
0
LINE
8
0
10
196.9
20
-87.9
11
196.9
21
-74.1
0
LINE
8
0
10
183.1
20
-70.9
11
196.9
21
-70.9
0
LINE
8
0
10
196.9
20
-70.9
11
196.9
21
-57.1
0
LINE
8
0
10
196.9
20
-57.1
11
183.1
21
-57.1
0
LINE
8
0
10
183.1
20
-57.1
11
183.1
21
-70.9
0
LINE
8
0
10
183.1
20
-53.9
11
196.9
21
-53.9
0
LINE
8
0
10
196.9
20
-53.9
11
196.9
21
-40.1
0
LINE
8
0
10
196.9
20
-40.1
11
183.1
21
-40.1
0
LINE
8
0
10
183.1
20
-40.1
11
183.1
21
-53.9
0
LINE
8
0
10
142.0606737
20
-126.5106028
11
155.6510207
21
-124.114258
0
LINE
8
0
10
155.6510207
20
-124.114258
11
153.2546759
21
-110.523911
0
LINE
8
0
10
153.2546759
20
-110.523911
11
139.6643289
21
-112.9202558
0
LINE
8
0
10
139.6643289
20
-112.9202558
11
142.0606737
21
-126.5106028
0
LINE
8
0
10
160.0083935
20
-123.7330372
11
173.8083935
21
-123.7330372
0
LINE
8
0
10
173.8083935
20
-123.7330372
11
173.8083935
21
-109.9330372
0
LINE
8
0
10
173.8083935
20
-109.9330372
11
160.0083935
21
-109.9330372
0
LINE
8
0
10
160.0083935
20
-109.9330372
11
160.0083935
21
-123.7330372
0
LINE
8
0
10
178.1657663
20
-124.114258
11
191.7561133
21
-126.5106028
0
LINE
8
0
10
191.7561133
20
-126.5106028
11
194.1524581
21
-112.9202558
0
LINE
8
0
10
194.1524581
20
-112.9202558
11
180.5621111
21
-110.523911
0
LINE
8
0
10
180.5621111
20
-110.523911
11
178.1657663
21
-124.114258
0
LINE
8
0
10
194.6431347
20
-130.3770642
11
207.1501821
21
-136.2091962
0
LINE
8
0
10
207.1501821
20
-136.2091962
11
212.9823141
21
-123.7021488
0
LINE
8
0
10
212.9823141
20
-123.7021488
11
200.4752667
21
-117.8700168
0
LINE
8
0
10
200.4752667
20
-117.8700168
11
194.6431347
21
-130.3770642
0
LINE
8
0
10
201.8276451
20
-114.9698318
11
214.3346925
21
-120.8019638
0
LINE
8
0
10
214.3346925
20
-120.8019638
11
220.1668245
21
-108.2949164
0
LINE
8
0
10
220.1668245
20
-108.2949164
11
207.6597771
21
-102.4627844
0
LINE
8
0
10
207.6597771
20
-102.4627844
11
201.8276451
21
-114.9698318
0
LINE
8
0
10
208.648214
20
-141.0635875
11
219.2196274
21
-149.9340565
0
LINE
8
0
10
219.2196274
20
-149.9340565
11
228.0900964
21
-139.3626431
0
LINE
8
0
10
228.0900964
20
-139.3626431
11
217.518683
21
-130.4921741
0
LINE
8
0
10
217.518683
20
-130.4921741
11
208.648214
21
-141.0635875
0
LINE
8
0
10
219.5756034
20
-128.040832
11
230.1470168
21
-136.911301
0
LINE
8
0
10
230.1470168
20
-136.911301
11
239.0174858
21
-126.3398876
0
LINE
8
0
10
239.0174858
20
-126.3398876
11
228.4460724
21
-117.4694186
0
LINE
8
0
10
228.4460724
20
-117.4694186
11
219.5756034
21
-128.040832
0
ENDSEC
0
EOF