0
SECTION
2
HEADER
9
$INSUNITS
70
4
0
ENDSEC
0
SECTION
2
TABLES
0
TABLE
2
LTYPE
0
LTYPE
72
65
70
64
2
CONTINUOUS
3
______
73
0
40
0
0
ENDTAB
0
TABLE
2
LAYER
0
ENDTAB
0
ENDSEC
0
SECTION
2
ENTITIES
0
LINE
8
0
10
-8.4507396
20
-4.8790368
11
4.8790368
21
-8.4507396
0
LINE
8
0
10
4.8790368
20
-8.4507396
11
8.4507396
21
4.8790368
0
LINE
8
0
10
8.4507396
20
4.8790368
11
-4.8790368
21
8.4507396
0
LINE
8
0
10
-4.8790368
20
8.4507396
11
-8.4507396
21
-4.8790368
0
LINE
8
0
10
-4.0508158
20
11.5417023
11
9.2789606
21
7.9699995
0
LINE
8
0
10
9.2789606
20
7.9699995
11
12.8506634
21
21.2997759
0
LINE
8
0
10
12.8506634
20
21.2997759
11
-0.479113
21
24.8714787
0
LINE
8
0
10
-0.479113
20
24.8714787
11
-4.0508158
21
11.5417023
0
LINE
8
0
10
0.349108
20
27.9624413
11
13.6788844
21
24.3907385
0
LINE
8
0
10
13.6788844
20
24.3907385
11
17.2505872
21
37.7205149
0
LINE
8
0
10
17.2505872
20
37.7205149
11
3.9208108
21
41.2922177
0
LINE
8
0
10
3.9208108
20
41.2922177
11
0.349108
21
27.9624413
0
LINE
8
0
10
4.7490318
20
44.3831804
11
18.0788082
21
40.8114776
0
LINE
8
0
10
18.0788082
20
40.8114776
11
21.650511
21
54.141254
0
LINE
8
0
10
21.650511
20
54.141254
11
8.3207346
21
57.7129568
0
LINE
8
0
10
8.3207346
20
57.7129568
11
4.7490318
21
44.3831804
0
LINE
8
0
10
8.9359253
20
-9.5377796
11
22.2657017
21
-13.1094824
0
LINE
8
0
10
22.2657017
20
-13.1094824
11
25.8374045
21
0.220294
0
LINE
8
0
10
25.8374045
20
0.220294
11
12.5076281
21
3.7919968
0
LINE
8
0
10
12.5076281
20
3.7919968
11
8.9359253
21
-9.5377796
0
LINE
8
0
10
13.3358491
20
6.8829595
11
26.6656255
21
3.3112567
0
LINE
8
0
10
26.6656255
20
3.3112567
11
30.2373283
21
16.6410331
0
LINE
8
0
10
30.2373283
20
16.6410331
11
16.9075519
21
20.2127359
0
LINE
8
0
10
16.9075519
20
20.2127359
11
13.3358491
21
6.8829595
0
LINE
8
0
10
17.7357729
20
23.3036985
11
31.0655493
21
19.7319957
0
LINE
8
0
10
31.0655493
20
19.7319957
11
34.6372521
21
33.0617721
0
LINE
8
0
10
34.6372521
20
33.0617721
11
21.3074757
21
36.6334749
0
LINE
8
0
10
21.3074757
20
36.6334749
11
17.7357729
21
23.3036985
0
LINE
8
0
10
22.1356967
20
39.7244376
11
35.4654731
21
36.1527348
0
LINE
8
0
10
35.4654731
20
36.1527348
11
39.0371759
21
49.4825112
0
LINE
8
0
10
39.0371759
20
49.4825112
11
25.7073995
21
53.054214
0
LINE
8
0
10
25.7073995
20
53.054214
11
22.1356967
21
39.7244376
0
LINE
8
0
10
27.3578664
20
-10.3328192
11
40.6876428
21
-13.904522
0
LINE
8
0
10
40.6876428
20
-13.904522
11
44.2593456
21
-0.5747456
0
LINE
8
0
10
44.2593456
20
-0.5747456
11
30.9295692
21
2.9969572
0
LINE
8
0
10
30.9295692
20
2.9969572
11
27.3578664
21
-10.3328192
0
LINE
8
0
10
31.7577902
20
6.0879199
11
45.0875666
21
2.5162171
0
LINE
8
0
10
45.0875666
20
2.5162171
11
48.6592694
21
15.8459935
0
LINE
8
0
10
48.6592694
20
15.8459935
11
35.329493
21
19.4176963
0
LINE
8
0
10
35.329493
20
19.4176963
11
31.7577902
21
6.0879199
0
LINE
8
0
10
36.157714
20
22.508659
11
49.4874904
21
18.9369562
0
LINE
8
0
10
49.4874904
20
18.9369562
11
53.0591932
21
32.2667326
0
LINE
8
0
10
53.0591932
20
32.2667326
11
39.7294168
21
35.8384354
0
LINE
8
0
10
39.7294168
20
35.8384354
11
36.157714
21
22.508659
0
LINE
8
0
10
40.5576378
20
38.929398
11
53.8874142
21
35.3576952
0
LINE
8
0
10
53.8874142
20
35.3576952
11
57.459117
21
48.6874716
0
LINE
8
0
10
57.459117
20
48.6874716
11
44.1293406
21
52.2591744
0
LINE
8
0
10
44.1293406
20
52.2591744
11
40.5576378
21
38.929398
0
LINE
8
0
10
45.2621693
20
-13.0597103
11
58.5919457
21
-16.6314131
0
LINE
8
0
10
58.5919457
20
-16.6314131
11
62.1636485
21
-3.3016367
0
LINE
8
0
10
62.1636485
20
-3.3016367
11
48.8338721
21
0.2700661
0
LINE
8
0
10
48.8338721
20
0.2700661
11
45.2621693
21
-13.0597103
0
LINE
8
0
10
49.6620931
20
3.3610288
11
62.9918695
21
-0.210674
0
LINE
8
0
10
62.9918695
20
-0.210674
11
66.5635723
21
13.1191024
0
LINE
8
0
10
66.5635723
20
13.1191024
11
53.2337959
21
16.6908052
0
LINE
8
0
10
53.2337959
20
16.6908052
11
49.6620931
21
3.3610288
0
LINE
8
0
10
54.0620169
20
19.7817679
11
67.3917933
21
16.2100651
0
LINE
8
0
10
67.3917933
20
16.2100651
11
70.9634961
21
29.5398415
0
LINE
8
0
10
70.9634961
20
29.5398415
11
57.6337197
21
33.1115443
0
LINE
8
0
10
57.6337197
20
33.1115443
11
54.0620169
21
19.7817679
0
LINE
8
0
10
58.4619407
20
36.2025069
11
71.7917171
21
32.6308041
0
LINE
8
0
10
71.7917171
20
32.6308041
11
75.3634199
21
45.9605805
0
LINE
8
0
10
75.3634199
20
45.9605805
11
62.0336435
21
49.5322833
0
LINE
8
0
10
62.0336435
20
49.5322833
11
58.4619407
21
36.2025069
0
LINE
8
0
10
62.1311961
20
-19.6503047
11
75.4609725
21
-23.2220075
0
LINE
8
0
10
75.4609725
20
-23.2220075
11
79.0326753
21
-9.8922311
0
LINE
8
0
10
79.0326753
20
-9.8922311
11
65.7028989
21
-6.3205283
0
LINE
8
0
10
65.7028989
20
-6.3205283
11
62.1311961
21
-19.6503047
0
LINE
8
0
10
66.5311199
20
-3.2295656
11
79.8608963
21
-6.8012684
0
LINE
8
0
10
79.8608963
20
-6.8012684
11
83.4325991
21
6.528508
0
LINE
8
0
10
83.4325991
20
6.528508
11
70.1028227
21
10.1002108
0
LINE
8
0
10
70.1028227
20
10.1002108
11
66.5311199
21
-3.2295656
0
LINE
8
0
10
70.9310437
20
13.1911734
11
84.2608201
21
9.6194706
0
LINE
8
0
10
84.2608201
20
9.6194706
11
87.8325229
21
22.949247
0
LINE
8
0
10
87.8325229
20
22.949247
11
74.5027465
21
26.5209498
0
LINE
8
0
10
74.5027465
20
26.5209498
11
70.9310437
21
13.1911734
0
LINE
8
0
10
75.3309675
20
29.6119125
11
88.6607439
21
26.0402097
0
LINE
8
0
10
88.6607439
20
26.0402097
11
92.2324467
21
39.3699861
0
LINE
8
0
10
92.2324467
20
39.3699861
11
78.9026703
21
42.9416889
0
LINE
8
0
10
78.9026703
20
42.9416889
11
75.3309675
21
29.6119125
0
LINE
8
0
10
79.0002228
20
-26.2408992
11
92.3299992
21
-29.812602
0
LINE
8
0
10
92.3299992
20
-29.812602
11
95.901702
21
-16.4828256
0
LINE
8
0
10
95.901702
20
-16.4828256
11
82.5719256
21
-12.9111228
0
LINE
8
0
10
82.5719256
20
-12.9111228
11
79.0002228
21
-26.2408992
0
LINE
8
0
10
83.4001466
20
-9.8201602
11
96.729923
21
-13.391863
0
LINE
8
0
10
96.729923
20
-13.391863
11
100.3016258
21
-0.0620866
0
LINE
8
0
10
100.3016258
20
-0.0620866
11
86.9718494
21
3.5096162
0
LINE
8
0
10
86.9718494
20
3.5096162
11
83.4001466
21
-9.8201602
0
LINE
8
0
10
87.8000704
20
6.6005789
11
101.1298468
21
3.0288761
0
LINE
8
0
10
101.1298468
20
3.0288761
11
104.7015496
21
16.3586525
0
LINE
8
0
10
104.7015496
20
16.3586525
11
91.3717732
21
19.9303553
0
LINE
8
0
10
91.3717732
20
19.9303553
11
87.8000704
21
6.6005789
0
LINE
8
0
10
92.1999942
20
23.021318
11
105.5297706
21
19.4496152
0
LINE
8
0
10
105.5297706
20
19.4496152
11
109.1014734
21
32.7793916
0
LINE
8
0
10
109.1014734
20
32.7793916
11
95.771697
21
36.3510944
0
LINE
8
0
10
95.771697
20
36.3510944
11
92.1999942
21
23.021318
0
LINE
8
0
10
33.7660421
20
-36.4933793
11
47.5135289
21
-37.6961285
0
LINE
8
0
10
47.5135289
20
-37.6961285
11
48.7162781
21
-23.9486417
0
LINE
8
0
10
48.7162781
20
-23.9486417
11
34.9687913
21
-22.7458925
0
LINE
8
0
10
34.9687913
20
-22.7458925
11
33.7660421
21
-36.4933793
0
LINE
8
0
10
51.821095
20
-38.4556687
11
65.1508714
21
-42.0273715
0
LINE
8
0
10
65.1508714
20
-42.0273715
11
68.7225742
21
-28.6975951
0
LINE
8
0
10
68.7225742
20
-28.6975951
11
55.3927978
21
-25.1258923
0
LINE
8
0
10
55.3927978
20
-25.1258923
11
51.821095
21
-38.4556687
0
LINE
8
0
10
69.2611031
20
-43.5233736
11
81.7681505
21
-49.3555056
0
LINE
8
0
10
81.7681505
20
-49.3555056
11
87.6002825
21
-36.8484582
0
LINE
8
0
10
87.6002825
20
-36.8484582
11
75.0932351
21
-31.0163262
0
LINE
8
0
10
75.0932351
20
-31.0163262
11
69.2611031
21
-43.5233736
0
LINE
8
0
10
83.5560853
20
-53.8374367
11
94.1274987
21
-62.7079057
0
LINE
8
0
10
94.1274987
20
-62.7079057
11
102.9979677
21
-52.1364923
0
LINE
8
0
10
102.9979677
20
-52.1364923
11
92.4265543
21
-43.2660233
0
LINE
8
0
10
92.4265543
20
-43.2660233
11
83.5560853
21
-53.8374367
0
LINE
8
0
10
94.4834747
20
-40.8146811
11
105.0548881
21
-49.6851501
0
LINE
8
0
10
105.0548881
20
-49.6851501
11
113.9253571
21
-39.1137367
0
LINE
8
0
10
113.9253571
20
-39.1137367
11
103.3539437
21
-30.2432677
0
LINE
8
0
10
103.3539437
20
-30.2432677
11
94.4834747
21
-40.8146811
0
LINE
8
0
10
94.3180774
20
-67.7846067
11
102.2334322
21
-79.0889049
0
LINE
8
0
10
102.2334322
20
-79.0889049
11
113.5377304
21
-71.1735501
0
LINE
8
0
10
113.5377304
20
-71.1735501
11
105.6223756
21
-59.8692519
0
LINE
8
0
10
105.6223756
20
-59.8692519
11
94.3180774
21
-67.7846067
0
LINE
8
0
10
108.2436622
20
-58.0338073
11
116.159017
21
-69.3381055
0
LINE
8
0
10
116.159017
20
-69.3381055
11
127.4633152
21
-61.4227507
0
LINE
8
0
10
127.4633152
20
-61.4227507
11
119.5479604
21
-50.1184525
0
LINE
8
0
10
119.5479604
20
-50.1184525
11
108.2436622
21
-58.0338073
0
LINE
8
0
10
268.6941406
20
-8.4507396
11
282.023917
21
-4.8790368
0
LINE
8
0
10
282.023917
20
-4.8790368
11
278.4522142
21
8.4507396
0
LINE
8
0
10
278.4522142
20
8.4507396
11
265.1224378
21
4.8790368
0
LINE
8
0
10
265.1224378
20
4.8790368
11
268.6941406
21
-8.4507396
0
LINE
8
0
10
264.2942168
20
7.9699995
11
277.6239932
21
11.5417023
0
LINE
8
0
10
277.6239932
20
11.5417023
11
274.0522904
21
24.8714787
0
LINE
8
0
10
274.0522904
20
24.8714787
11
260.722514
21
21.2997759
0
LINE
8
0
10
260.722514
20
21.2997759
11
264.2942168
21
7.9699995
0
LINE
8
0
10
259.894293
20
24.3907385
11
273.2240694
21
27.9624413
0
LINE
8
0
10
273.2240694
20
27.9624413
11
269.6523666
21
41.2922177
0
LINE
8
0
10
269.6523666
20
41.2922177
11
256.3225902
21
37.7205149
0
LINE
8
0
10
256.3225902
20
37.7205149
11
259.894293
21
24.3907385
0
LINE
8
0
10
255.4943692
20
40.8114776
11
268.8241456
21
44.3831804
0
LINE
8
0
10
268.8241456
20
44.3831804
11
265.2524428
21
57.7129568
0
LINE
8
0
10
265.2524428
20
57.7129568
11
251.9226664
21
54.141254
0
LINE
8
0
10
251.9226664
20
54.141254
11
255.4943692
21
40.8114776
0
LINE
8
0
10
251.3074757
20
-13.1094824
11
264.6372521
21
-9.5377796
0
LINE
8
0
10
264.6372521
20
-9.5377796
11
261.0655493
21
3.7919968
0
LINE
8
0
10
261.0655493
20
3.7919968
11
247.7357729
21
0.220294
0
LINE
8
0
10
247.7357729
20
0.220294
11
251.3074757
21
-13.1094824
0
LINE
8
0
10
246.9075519
20
3.3112567
11
260.2373283
21
6.8829595
0
LINE
8
0
10
260.2373283
20
6.8829595
11
256.6656255
21
20.2127359
0
LINE
8
0
10
256.6656255
20
20.2127359
11
243.3358491
21
16.6410331
0
LINE
8
0
10
243.3358491
20
16.6410331
11
246.9075519
21
3.3112567
0
LINE
8
0
10
242.5076281
20
19.7319957
11
255.8374045
21
23.3036985
0
LINE
8
0
10
255.8374045
20
23.3036985
11
252.2657017
21
36.6334749
0
LINE
8
0
10
252.2657017
20
36.6334749
11
238.9359253
21
33.0617721
0
LINE
8
0
10
238.9359253
20
33.0617721
11
242.5076281
21
19.7319957
0
LINE
8
0
10
238.1077043
20
36.1527348
11
251.4374807
21
39.7244376
0
LINE
8
0
10
251.4374807
20
39.7244376
11
247.8657779
21
53.054214
0
LINE
8
0
10
247.8657779
20
53.054214
11
234.5360015
21
49.4825112
0
LINE
8
0
10
234.5360015
20
49.4825112
11
238.1077043
21
36.1527348
0
LINE
8
0
10
232.8855346
20
-13.904522
11
246.215311
21
-10.3328192
0
LINE
8
0
10
246.215311
20
-10.3328192
11
242.6436082
21
2.9969572
0
LINE
8
0
10
242.6436082
20
2.9969572
11
229.3138318
21
-0.5747456
0
LINE
8
0
10
229.3138318
20
-0.5747456
11
232.8855346
21
-13.904522
0
LINE
8
0
10
228.4856108
20
2.5162171
11
241.8153872
21
6.0879199
0
LINE
8
0
10
241.8153872
20
6.0879199
11
238.2436844
21
19.4176963
0
LINE
8
0
10
238.2436844
20
19.4176963
11
224.913908
21
15.8459935
0
LINE
8
0
10
224.913908
20
15.8459935
11
228.4856108
21
2.5162171
0
LINE
8
0
10
224.085687
20
18.9369562
11
237.4154634
21
22.508659
0
LINE
8
0
10
237.4154634
20
22.508659
11
233.8437606
21
35.8384354
0
LINE
8
0
10
233.8437606
20
35.8384354
11
220.5139842
21
32.2667326
0
LINE
8
0
10
220.5139842
20
32.2667326
11
224.085687
21
18.9369562
0
LINE
8
0
10
219.6857632
20
35.3576952
11
233.0155396
21
38.929398
0
LINE
8
0
10
233.0155396
20
38.929398
11
229.4438368
21
52.2591744
0
LINE
8
0
10
229.4438368
20
52.2591744
11
216.1140604
21
48.6874716
0
LINE
8
0
10
216.1140604
20
48.6874716
11
219.6857632
21
35.3576952
0
LINE
8
0
10
214.9812317
20
-16.6314131
11
228.3110081
21
-13.0597103
0
LINE
8
0
10
228.3110081
20
-13.0597103
11
224.7393053
21
0.2700661
0
LINE
8
0
10
224.7393053
20
0.2700661
11
211.4095289
21
-3.3016367
0
LINE
8
0
10
211.4095289
20
-3.3016367
11
214.9812317
21
-16.6314131
0
LINE
8
0
10
210.5813079
20
-0.210674
11
223.9110843
21
3.3610288
0
LINE
8
0
10
223.9110843
20
3.3610288
11
220.3393815
21
16.6908052
0
LINE
8
0
10
220.3393815
20
16.6908052
11
207.0096051
21
13.1191024
0
LINE
8
0
10
207.0096051
20
13.1191024
11
210.5813079
21
-0.210674
0
LINE
8
0
10
206.1813841
20
16.2100651
11
219.5111605
21
19.7817679
0
LINE
8
0
10
219.5111605
20
19.7817679
11
215.9394577
21
33.1115443
0
LINE
8
0
10
215.9394577
20
33.1115443
11
202.6096813
21
29.5398415
0
LINE
8
0
10
202.6096813
20
29.5398415
11
206.1813841
21
16.2100651
0
LINE
8
0
10
201.7814603
20
32.6308041
11
215.1112367
21
36.2025069
0
LINE
8
0
10
215.1112367
20
36.2025069
11
211.5395339
21
49.5322833
0
LINE
8
0
10
211.5395339
20
49.5322833
11
198.2097575
21
45.9605805
0
LINE
8
0
10
198.2097575
20
45.9605805
11
201.7814603
21
32.6308041
0
LINE
8
0
10
198.1122049
20
-23.2220075
11
211.4419813
21
-19.6503047
0
LINE
8
0
10
211.4419813
20
-19.6503047
11
207.8702785
21
-6.3205283
0
LINE
8
0
10
207.8702785
20
-6.3205283
11
194.5405021
21
-9.8922311
0
LINE
8
0
10
194.5405021
20
-9.8922311
11
198.1122049
21
-23.2220075
0
LINE
8
0
10
193.7122811
20
-6.8012684
11
207.0420575
21
-3.2295656
0
LINE
8
0
10
207.0420575
20
-3.2295656
11
203.4703547
21
10.1002108
0
LINE
8
0
10
203.4703547
20
10.1002108
11
190.1405783
21
6.528508
0
LINE
8
0
10
190.1405783
20
6.528508
11
193.7122811
21
-6.8012684
0
LINE
8
0
10
189.3123573
20
9.6194706
11
202.6421337
21
13.1911734
0
LINE
8
0
10
202.6421337
20
13.1911734
11
199.0704309
21
26.5209498
0
LINE
8
0
10
199.0704309
20
26.5209498
11
185.7406545
21
22.949247
0
LINE
8
0
10
185.7406545
20
22.949247
11
189.3123573
21
9.6194706
0
LINE
8
0
10
184.9124335
20
26.0402097
11
198.2422099
21
29.6119125
0
LINE
8
0
10
198.2422099
20
29.6119125
11
194.6705071
21
42.9416889
0
LINE
8
0
10
194.6705071
20
42.9416889
11
181.3407307
21
39.3699861
0
LINE
8
0
10
181.3407307
20
39.3699861
11
184.9124335
21
26.0402097
0
LINE
8
0
10
181.2431782
20
-29.812602
11
194.5729546
21
-26.2408992
0
LINE
8
0
10
194.5729546
20
-26.2408992
11
191.0012518
21
-12.9111228
0
LINE
8
0
10
191.0012518
20
-12.9111228
11
177.6714754
21
-16.4828256
0
LINE
8
0
10
177.6714754
20
-16.4828256
11
181.2431782
21
-29.812602
0
LINE
8
0
10
176.8432544
20
-13.391863
11
190.1730308
21
-9.8201602
0
LINE
8
0
10
190.1730308
20
-9.8201602
11
186.601328
21
3.5096162
0
LINE
8
0
10
186.601328
20
3.5096162
11
173.2715516
21
-0.0620866
0
LINE
8
0
10
173.2715516
20
-0.0620866
11
176.8432544
21
-13.391863
0
LINE
8
0
10
172.4433306
20
3.0288761
11
185.773107
21
6.6005789
0
LINE
8
0
10
185.773107
20
6.6005789
11
182.2014042
21
19.9303553
0
LINE
8
0
10
182.2014042
20
19.9303553
11
168.8716278
21
16.3586525
0
LINE
8
0
10
168.8716278
20
16.3586525
11
172.4433306
21
3.0288761
0
LINE
8
0
10
168.0434068
20
19.4496152
11
181.3731832
21
23.021318
0
LINE
8
0
10
181.3731832
20
23.021318
11
177.8014804
21
36.3510944
0
LINE
8
0
10
177.8014804
20
36.3510944
11
164.471704
21
32.7793916
0
LINE
8
0
10
164.471704
20
32.7793916
11
168.0434068
21
19.4496152
0
LINE
8
0
10
226.0596485
20
-37.6961285
11
239.8071353
21
-36.4933793
0
LINE
8
0
10
239.8071353
20
-36.4933793
11
238.6043861
21
-22.7458925
0
LINE
8
0
10
238.6043861
20
-22.7458925
11
224.8568993
21
-23.9486417
0
LINE
8
0
10
224.8568993
20
-23.9486417
11
226.0596485
21
-37.6961285
0
LINE
8
0
10
208.422306
20
-42.0273715
11
221.7520824
21
-38.4556687
0
LINE
8
0
10
221.7520824
20
-38.4556687
11
218.1803796
21
-25.1258923
0
LINE
8
0
10
218.1803796
20
-25.1258923
11
204.8506032
21
-28.6975951
0
LINE
8
0
10
204.8506032
20
-28.6975951
11
208.422306
21
-42.0273715
0
LINE
8
0
10
191.8050269
20
-49.3555056
11
204.3120743
21
-43.5233736
0
LINE
8
0
10
204.3120743
20
-43.5233736
11
198.4799423
21
-31.0163262
0
LINE
8
0
10
198.4799423
20
-31.0163262
11
185.9728949
21
-36.8484582
0
LINE
8
0
10
185.9728949
20
-36.8484582
11
191.8050269
21
-49.3555056
0
LINE
8
0
10
179.4456787
20
-62.7079057
11
190.0170921
21
-53.8374367
0
LINE
8
0
10
190.0170921
20
-53.8374367
11
181.1466231
21
-43.2660233
0
LINE
8
0
10
181.1466231
20
-43.2660233
11
170.5752097
21
-52.1364923
0
LINE
8
0
10
170.5752097
20
-52.1364923
11
179.4456787
21
-62.7079057
0
LINE
8
0
10
168.5182893
20
-49.6851501
11
179.0897027
21
-40.8146811
0
LINE
8
0
10
179.0897027
20
-40.8146811
11
170.2192337
21
-30.2432677
0
LINE
8
0
10
170.2192337
20
-30.2432677
11
159.6478203
21
-39.1137367
0
LINE
8
0
10
159.6478203
20
-39.1137367
11
168.5182893
21
-49.6851501
0
LINE
8
0
10
171.3397452
20
-79.0889049
11
179.2551
21
-67.7846067
0
LINE
8
0
10
179.2551
20
-67.7846067
11
167.9508018
21
-59.8692519
0
LINE
8
0
10
167.9508018
20
-59.8692519
11
160.035447
21
-71.1735501
0
LINE
8
0
10
160.035447
20
-71.1735501
11
171.3397452
21
-79.0889049
0
LINE
8
0
10
157.4141604
20
-69.3381055
11
165.3295152
21
-58.0338073
0
LINE
8
0
10
165.3295152
20
-58.0338073
11
154.025217
21
-50.1184525
0
LINE
8
0
10
154.025217
20
-50.1184525
11
146.1098622
21
-61.4227507
0
LINE
8
0
10
146.1098622
20
-61.4227507
11
157.4141604
21
-69.3381055
0
ENDSEC
0
EOF