<svg width="290.475mm" height="136.802mm" viewBox="0 0 290.475 136.802" xmlns="http://www.w3.org/2000/svg"><g id="svgGroup" stroke-linecap="round" fill-rule="evenodd" font-size="9pt" stroke="#000" stroke-width="0.25mm" fill="none" style="stroke:#000;stroke-width:0.25mm;fill:none"><path d="M 102.934 98.528 L 113.506 107.398 L 122.376 96.827 L 111.805 87.956 L 102.934 98.528 Z M 176.969 107.398 L 187.54 98.528 L 178.67 87.956 L 168.099 96.827 L 176.969 107.398 Z M 92.007 111.55 L 102.578 120.421 L 111.449 109.849 L 100.877 100.979 L 92.007 111.55 Z M 187.896 120.421 L 198.468 111.55 L 189.597 100.979 L 179.026 109.849 L 187.896 120.421 Z M 263.945 16.901 L 277.275 13.33 L 273.703 0 L 260.373 3.572 L 263.945 16.901 Z M 259.758 70.822 L 273.088 67.251 L 269.516 53.921 L 256.187 57.493 L 259.758 70.822 Z M 277.145 66.164 L 290.475 62.592 L 286.903 49.262 L 273.573 52.834 L 277.145 66.164 Z M 272.745 49.743 L 286.075 46.171 L 282.503 32.841 L 269.173 36.413 L 272.745 49.743 Z M 268.345 33.322 L 281.675 29.751 L 278.103 16.421 L 264.773 19.992 L 268.345 33.322 Z M 193.363 31.673 L 206.693 28.101 L 203.121 14.771 L 189.791 18.343 L 193.363 31.673 Z M 0 62.592 L 13.33 66.164 L 16.901 52.834 L 3.572 49.262 L 0 62.592 Z M 4.4 46.171 L 17.73 49.743 L 21.301 36.413 L 7.972 32.841 L 4.4 46.171 Z M 8.8 29.751 L 22.13 33.322 L 25.701 19.992 L 12.372 16.421 L 8.8 29.751 Z M 35.809 68.046 L 49.138 71.617 L 52.71 58.288 L 39.38 54.716 L 35.809 68.046 Z M 49.008 18.784 L 62.338 22.355 L 65.91 9.025 L 52.58 5.454 L 49.008 18.784 Z M 53.713 70.773 L 67.043 74.344 L 70.614 61.015 L 57.285 57.443 L 53.713 70.773 Z M 58.113 54.352 L 71.443 57.924 L 75.014 44.594 L 61.685 41.022 L 58.113 54.352 Z M 250.958 37.981 L 264.288 34.409 L 260.716 21.079 L 247.387 24.651 L 250.958 37.981 Z M 246.558 21.56 L 259.888 17.989 L 256.317 4.659 L 242.987 8.23 L 246.558 21.56 Z M 241.336 71.617 L 254.666 68.046 L 251.094 54.716 L 237.765 58.288 L 241.336 71.617 Z M 236.936 55.197 L 250.266 51.625 L 246.694 38.295 L 233.365 41.867 L 236.936 55.197 Z M 223.432 74.344 L 236.762 70.773 L 233.19 57.443 L 219.86 61.015 L 223.432 74.344 Z M 219.032 57.924 L 232.362 54.352 L 228.79 41.022 L 215.46 44.594 L 219.032 57.924 Z M 202.163 64.514 L 215.493 60.943 L 211.921 47.613 L 198.591 51.184 L 202.163 64.514 Z M 197.763 48.093 L 211.093 44.522 L 207.521 31.192 L 194.191 34.764 L 197.763 48.093 Z M 189.694 87.526 L 203.024 83.954 L 199.452 70.624 L 186.122 74.196 L 189.694 87.526 Z M 185.294 71.105 L 198.624 67.533 L 195.052 54.203 L 181.722 57.775 L 185.294 71.105 Z M 180.894 54.684 L 194.224 51.112 L 190.652 37.783 L 177.322 41.354 L 180.894 54.684 Z M 176.494 38.263 L 189.824 34.692 L 186.252 21.362 L 172.922 24.934 L 176.494 38.263 Z M 13.2 13.33 L 26.53 16.901 L 30.101 3.572 L 16.771 0 L 13.2 13.33 Z M 17.387 67.251 L 30.716 70.822 L 34.288 57.493 L 20.958 53.921 L 17.387 67.251 Z M 21.787 50.83 L 35.116 54.402 L 38.688 41.072 L 25.358 37.5 L 21.787 50.83 Z M 26.187 34.409 L 39.516 37.981 L 43.088 24.651 L 29.758 21.079 L 26.187 34.409 Z M 30.586 17.989 L 43.916 21.56 L 47.488 8.23 L 34.158 4.659 L 30.586 17.989 Z M 40.209 51.625 L 53.538 55.197 L 57.11 41.867 L 43.78 38.295 L 40.209 51.625 Z M 44.608 35.204 L 57.938 38.776 L 61.51 25.446 L 48.18 21.875 L 44.608 35.204 Z M 62.513 37.931 L 75.843 41.503 L 79.414 28.173 L 66.084 24.601 L 62.513 37.931 Z M 66.913 21.51 L 80.242 25.082 L 83.814 11.752 L 70.484 8.181 L 66.913 21.51 Z M 70.582 77.363 L 83.912 80.935 L 87.483 67.605 L 74.154 64.033 L 70.582 77.363 Z M 74.982 60.943 L 88.312 64.514 L 91.883 51.184 L 78.554 47.613 L 74.982 60.943 Z M 79.382 44.522 L 92.712 48.093 L 96.283 34.764 L 82.953 31.192 L 79.382 44.522 Z M 83.782 28.101 L 97.111 31.673 L 100.683 18.343 L 87.353 14.771 L 83.782 28.101 Z M 87.451 83.954 L 100.781 87.526 L 104.352 74.196 L 91.023 70.624 L 87.451 83.954 Z M 91.851 67.533 L 105.181 71.105 L 108.752 57.775 L 95.423 54.203 L 91.851 67.533 Z M 96.251 51.112 L 109.581 54.684 L 113.152 41.354 L 99.823 37.783 L 96.251 51.112 Z M 100.651 34.692 L 113.981 38.263 L 117.552 24.934 L 104.222 21.362 L 100.651 34.692 Z M 60.272 96.169 L 73.602 99.74 L 77.173 86.411 L 63.844 82.839 L 60.272 96.169 Z M 255.358 54.402 L 268.688 50.83 L 265.116 37.5 L 251.787 41.072 L 255.358 54.402 Z M 214.632 41.503 L 227.962 37.931 L 224.39 24.601 L 211.06 28.173 L 214.632 41.503 Z M 216.873 99.74 L 230.203 96.169 L 226.631 82.839 L 213.301 86.411 L 216.873 99.74 Z M 232.536 38.776 L 245.866 35.204 L 242.295 21.875 L 228.965 25.446 L 232.536 38.776 Z M 228.137 22.355 L 241.466 18.784 L 237.895 5.454 L 224.565 9.025 L 228.137 22.355 Z M 210.232 25.082 L 223.562 21.51 L 219.99 8.181 L 206.66 11.752 L 210.232 25.082 Z M 206.563 80.935 L 219.893 77.363 L 216.321 64.033 L 202.991 67.605 L 206.563 80.935 Z M 102.769 125.498 L 110.684 136.802 L 121.988 128.887 L 114.073 117.582 L 102.769 125.498 Z M 116.694 115.747 L 124.61 127.051 L 135.914 119.136 L 127.999 107.831 L 116.694 115.747 Z M 179.79 136.802 L 187.706 125.498 L 176.402 117.582 L 168.486 128.887 L 179.79 136.802 Z M 165.865 127.051 L 173.78 115.747 L 162.476 107.831 L 154.561 119.136 L 165.865 127.051 Z M 234.51 95.409 L 248.258 94.206 L 247.055 80.459 L 233.308 81.662 L 234.51 95.409 Z M 42.217 94.206 L 55.964 95.409 L 57.167 81.662 L 43.42 80.459 L 42.217 94.206 Z M 200.256 107.068 L 212.763 101.236 L 206.931 88.729 L 194.424 94.561 L 200.256 107.068 Z M 77.712 101.236 L 90.219 107.068 L 96.051 94.561 L 83.544 88.729 L 77.712 101.236 Z" vector-effect="non-scaling-stroke"/></g></svg>