<svg width="294.747mm" height="140.874mm" viewBox="0 0 294.747 140.874" xmlns="http://www.w3.org/2000/svg"><g id="svgGroup" stroke-linecap="round" fill-rule="evenodd" font-size="9pt" stroke="#000" stroke-width="0.25mm" fill="none" style="stroke:#000;stroke-width:0.25mm;fill:none"><path d="M 116.254 117.075 L 126.292 131.41 L 112.776 140.874 L 102.738 126.539 L 116.254 117.075 Z M 168.456 131.41 L 178.493 117.075 L 192.009 126.539 L 181.972 140.874 L 168.456 131.41 Z M 154.53 121.66 L 164.568 107.324 L 178.084 116.788 L 168.046 131.124 L 154.53 121.66 Z M 130.18 107.324 L 140.217 121.66 L 126.701 131.124 L 116.664 116.788 L 130.18 107.324 Z M 113.392 87.516 L 126.797 98.765 L 116.191 111.404 L 102.786 100.155 L 113.392 87.516 Z M 102.464 100.538 L 115.87 111.787 L 105.264 124.427 L 91.858 113.178 L 102.464 100.538 Z M 178.877 111.787 L 192.283 100.538 L 202.889 113.178 L 189.483 124.427 L 178.877 111.787 Z M 167.95 98.765 L 181.356 87.516 L 191.962 100.155 L 178.556 111.404 L 167.95 98.765 Z M 273.573 53.792 L 290.477 49.262 L 294.747 65.2 L 277.844 69.729 L 273.573 53.792 Z M 269.173 37.371 L 286.077 32.841 L 290.347 48.779 L 273.444 53.309 L 269.173 37.371 Z M 4.271 49.262 L 21.174 53.792 L 16.904 69.729 L 0 65.2 L 4.271 49.262 Z M 8.67 32.841 L 25.574 37.371 L 21.304 53.309 L 4.4 48.779 L 8.67 32.841 Z M 13.07 16.421 L 29.974 20.95 L 25.704 36.888 L 8.8 32.359 L 13.07 16.421 Z M 17.47 0 L 34.374 4.529 L 30.103 20.467 L 13.2 15.938 L 17.47 0 Z M 21.657 53.921 L 38.561 58.45 L 34.29 74.388 L 17.387 69.859 L 21.657 53.921 Z M 26.057 37.5 L 42.961 42.03 L 38.69 57.967 L 21.787 53.438 L 26.057 37.5 Z M 40.079 54.716 L 56.983 59.245 L 52.712 75.183 L 35.809 70.654 L 40.079 54.716 Z M 53.279 5.454 L 70.183 9.983 L 65.912 25.921 L 49.008 21.392 L 53.279 5.454 Z M 62.383 41.022 L 79.287 45.551 L 75.017 61.489 L 58.113 56.96 L 62.383 41.022 Z M 66.783 24.601 L 83.687 29.131 L 79.416 45.069 L 62.513 40.539 L 66.783 24.601 Z M 104.921 21.362 L 121.825 25.891 L 117.554 41.829 L 100.651 37.3 L 104.921 21.362 Z M 264.773 20.95 L 281.677 16.421 L 285.948 32.359 L 269.044 36.888 L 264.773 20.95 Z M 260.373 4.529 L 277.277 0 L 281.548 15.938 L 264.644 20.467 L 260.373 4.529 Z M 30.457 21.079 L 47.361 25.609 L 43.09 41.547 L 26.187 37.017 L 30.457 21.079 Z M 34.857 4.659 L 51.761 9.188 L 47.49 25.126 L 30.586 20.597 L 34.857 4.659 Z M 44.479 38.295 L 61.383 42.825 L 57.112 58.762 L 40.209 54.233 L 44.479 38.295 Z M 48.879 21.875 L 65.783 26.404 L 61.512 42.342 L 44.608 37.812 L 48.879 21.875 Z M 57.983 57.443 L 74.887 61.972 L 70.617 77.91 L 53.713 73.381 L 57.983 57.443 Z M 71.183 8.181 L 88.087 12.71 L 83.816 28.648 L 66.913 24.118 L 71.183 8.181 Z M 74.852 64.033 L 91.756 68.563 L 87.486 84.501 L 70.582 79.971 L 74.852 64.033 Z M 79.252 47.613 L 96.156 52.142 L 91.886 68.08 L 74.982 63.551 L 79.252 47.613 Z M 91.721 70.624 L 108.625 75.153 L 104.355 91.091 L 87.451 86.562 L 91.721 70.624 Z M 96.121 54.203 L 113.025 58.733 L 108.755 74.67 L 91.851 70.141 L 96.121 54.203 Z M 64.542 82.839 L 81.446 87.368 L 77.176 103.306 L 60.272 98.777 L 64.542 82.839 Z M 256.187 58.45 L 273.09 53.921 L 277.361 69.859 L 260.457 74.388 L 256.187 58.45 Z M 247.387 25.609 L 264.29 21.079 L 268.561 37.017 L 251.657 41.547 L 247.387 25.609 Z M 83.652 31.192 L 100.556 35.721 L 96.285 51.659 L 79.382 47.13 L 83.652 31.192 Z M 88.052 14.771 L 104.956 19.301 L 100.685 35.238 L 83.782 30.709 L 88.052 14.771 Z M 100.521 37.783 L 117.425 42.312 L 113.155 58.25 L 96.251 53.72 L 100.521 37.783 Z M 251.787 42.03 L 268.69 37.5 L 272.961 53.438 L 256.057 57.967 L 251.787 42.03 Z M 228.965 26.404 L 245.868 21.875 L 250.139 37.812 L 233.235 42.342 L 228.965 26.404 Z M 224.565 9.983 L 241.469 5.454 L 245.739 21.392 L 228.835 25.921 L 224.565 9.983 Z M 211.06 29.131 L 227.964 24.601 L 232.235 40.539 L 215.331 45.069 L 211.06 29.131 Z M 206.66 12.71 L 223.564 8.181 L 227.835 24.118 L 210.931 28.648 L 206.66 12.71 Z M 202.991 68.563 L 219.895 64.033 L 224.165 79.971 L 207.262 84.501 L 202.991 68.563 Z M 213.301 87.368 L 230.205 82.839 L 234.476 98.777 L 217.572 103.306 L 213.301 87.368 Z M 242.987 9.188 L 259.89 4.659 L 264.161 20.597 L 247.257 25.126 L 242.987 9.188 Z M 215.46 45.551 L 232.364 41.022 L 236.635 56.96 L 219.731 61.489 L 215.46 45.551 Z M 198.591 52.142 L 215.495 47.613 L 219.766 63.551 L 202.862 68.08 L 198.591 52.142 Z M 189.791 19.301 L 206.695 14.771 L 210.966 30.709 L 194.062 35.238 L 189.791 19.301 Z M 186.122 75.153 L 203.026 70.624 L 207.296 86.562 L 190.393 91.091 L 186.122 75.153 Z M 172.922 25.891 L 189.826 21.362 L 194.097 37.3 L 177.193 41.829 L 172.922 25.891 Z M 237.765 59.245 L 254.668 54.716 L 258.939 70.654 L 242.035 75.183 L 237.765 59.245 Z M 233.365 42.825 L 250.268 38.295 L 254.539 54.233 L 237.635 58.762 L 233.365 42.825 Z M 219.86 61.972 L 236.764 57.443 L 241.034 73.381 L 224.131 77.91 L 219.86 61.972 Z M 194.191 35.721 L 211.095 31.192 L 215.366 47.13 L 198.462 51.659 L 194.191 35.721 Z M 181.722 58.733 L 198.626 54.203 L 202.897 70.141 L 185.993 74.67 L 181.722 58.733 Z M 177.322 42.312 L 194.226 37.783 L 198.497 53.72 L 181.593 58.25 L 177.322 42.312 Z M 84.574 88.507 L 100.435 95.903 L 93.461 110.857 L 77.601 103.461 L 84.574 88.507 Z M 194.313 95.903 L 210.173 88.507 L 217.146 103.461 L 201.286 110.857 L 194.313 95.903 Z M 233.483 82.261 L 250.917 80.736 L 252.355 97.173 L 234.921 98.698 L 233.483 82.261 Z M 43.831 80.736 L 61.264 82.261 L 59.826 98.698 L 42.393 97.173 L 43.831 80.736 Z" vector-effect="non-scaling-stroke"/></g></svg>